<?xml version="1.0" encoding="UTF-8" standalone="no"?><svg xmlns="http://www.w3.org/2000/svg" xmlns:xlink="http://www.w3.org/1999/xlink" contentScriptType="application/ecmascript" contentStyleType="text/css" height="703px" preserveAspectRatio="none" style="width:983px;height:703px;" version="1.1" viewBox="0 0 983 703" width="983px" zoomAndPan="magnify"><defs><filter height="300%" id="fouz2psr74dn6" width="300%" x="-1" y="-1"><feGaussianBlur result="blurOut" stdDeviation="2.0"/><feColorMatrix in="blurOut" result="blurOut2" type="matrix" values="0 0 0 0 0 0 0 0 0 0 0 0 0 0 0 0 0 0 .4 0"/><feOffset dx="4.0" dy="4.0" in="blurOut2" result="blurOut3"/><feBlend in="SourceGraphic" in2="blurOut3" mode="normal"/></filter></defs><g><!--cluster laplacian_arch.service_api_arch--><polygon fill="#FFFFFF" filter="url(#fouz2psr74dn6)" points="398.5,16.5,624.5,16.5,631.5,38.9883,634.5,38.9883,634.5,99.5,398.5,99.5,398.5,16.5" style="stroke: #000000; stroke-width: 1.5;"/><line style="stroke: #000000; stroke-width: 1.5;" x1="398.5" x2="631.5" y1="38.9883" y2="38.9883"/><text fill="#000000" font-family="sans-serif" font-size="14" font-weight="bold" lengthAdjust="spacingAndGlyphs" textLength="220" x="402.5" y="32.0352">laplacian_arch.service_api_arch</text><!--cluster laplacian_arch.client_app_arch--><polygon fill="#FFFFFF" filter="url(#fouz2psr74dn6)" points="401.5,107.5,621.5,107.5,628.5,129.9883,631.5,129.9883,631.5,190.5,401.5,190.5,401.5,107.5" style="stroke: #000000; stroke-width: 1.5;"/><line style="stroke: #000000; stroke-width: 1.5;" x1="401.5" x2="628.5" y1="129.9883" y2="129.9883"/><text fill="#000000" font-family="sans-serif" font-size="14" font-weight="bold" lengthAdjust="spacingAndGlyphs" textLength="214" x="405.5" y="123.0352">laplacian_arch.client_app_arch</text><!--cluster laplacian_arch.datasource--><polygon fill="#FFFFFF" filter="url(#fouz2psr74dn6)" points="418,362.5,606,362.5,613,384.9883,616,384.9883,616,445.5,418,445.5,418,362.5" style="stroke: #000000; stroke-width: 1.5;"/><line style="stroke: #000000; stroke-width: 1.5;" x1="418" x2="613" y1="384.9883" y2="384.9883"/><text fill="#000000" font-family="sans-serif" font-size="14" font-weight="bold" lengthAdjust="spacingAndGlyphs" textLength="182" x="422" y="378.0352">laplacian_arch.datasource</text><!--class Service--><rect fill="#FEFECE" filter="url(#fouz2psr74dn6)" height="48" id="Service" style="stroke: #A80036; stroke-width: 1.5;" width="72" x="480.5" y="43.5"/><ellipse cx="495.5" cy="59.5" fill="#ADD1B2" rx="11" ry="11" style="stroke: #A80036; stroke-width: 1.0;"/><path d="M497.9731,65.6431 Q497.3921,65.9419 496.7529,66.0913 Q496.1138,66.2407 495.4082,66.2407 Q492.9014,66.2407 491.5815,64.5889 Q490.2617,62.937 490.2617,59.8159 Q490.2617,56.6865 491.5815,55.0347 Q492.9014,53.3828 495.4082,53.3828 Q496.1138,53.3828 496.7612,53.5322 Q497.4087,53.6816 497.9731,53.9805 L497.9731,56.7031 Q497.3423,56.1221 496.7488,55.8523 Q496.1553,55.5825 495.5244,55.5825 Q494.1797,55.5825 493.4949,56.6492 Q492.8101,57.7158 492.8101,59.8159 Q492.8101,61.9077 493.4949,62.9744 Q494.1797,64.041 495.5244,64.041 Q496.1553,64.041 496.7488,63.7712 Q497.3423,63.5015 497.9731,62.9204 Z "/><text fill="#000000" font-family="sans-serif" font-size="12" lengthAdjust="spacingAndGlyphs" textLength="40" x="509.5" y="64.0352">Service</text><line style="stroke: #A80036; stroke-width: 1.5;" x1="481.5" x2="551.5" y1="75.5" y2="75.5"/><line style="stroke: #A80036; stroke-width: 1.5;" x1="481.5" x2="551.5" y1="83.5" y2="83.5"/><!--class Client--><rect fill="#FEFECE" filter="url(#fouz2psr74dn6)" height="48" id="Client" style="stroke: #A80036; stroke-width: 1.5;" width="64" x="484.5" y="134.5"/><ellipse cx="499.5" cy="150.5" fill="#ADD1B2" rx="11" ry="11" style="stroke: #A80036; stroke-width: 1.0;"/><path d="M501.9731,156.6431 Q501.3921,156.9419 500.7529,157.0913 Q500.1138,157.2407 499.4082,157.2407 Q496.9014,157.2407 495.5815,155.5889 Q494.2617,153.937 494.2617,150.8159 Q494.2617,147.6865 495.5815,146.0347 Q496.9014,144.3828 499.4082,144.3828 Q500.1138,144.3828 500.7612,144.5322 Q501.4087,144.6816 501.9731,144.9805 L501.9731,147.7031 Q501.3423,147.1221 500.7488,146.8523 Q500.1553,146.5825 499.5244,146.5825 Q498.1797,146.5825 497.4949,147.6492 Q496.8101,148.7158 496.8101,150.8159 Q496.8101,152.9077 497.4949,153.9744 Q498.1797,155.041 499.5244,155.041 Q500.1553,155.041 500.7488,154.7712 Q501.3423,154.5015 501.9731,153.9204 Z "/><text fill="#000000" font-family="sans-serif" font-size="12" lengthAdjust="spacingAndGlyphs" textLength="32" x="513.5" y="155.0352">Client</text><line style="stroke: #A80036; stroke-width: 1.5;" x1="485.5" x2="547.5" y1="166.5" y2="166.5"/><line style="stroke: #A80036; stroke-width: 1.5;" x1="485.5" x2="547.5" y1="174.5" y2="174.5"/><!--class Datasource--><rect fill="#FEFECE" filter="url(#fouz2psr74dn6)" height="48" id="Datasource" style="stroke: #A80036; stroke-width: 1.5;" width="97" x="468" y="389.5"/><ellipse cx="483" cy="405.5" fill="#ADD1B2" rx="11" ry="11" style="stroke: #A80036; stroke-width: 1.0;"/><path d="M485.4731,411.6431 Q484.8921,411.9419 484.2529,412.0913 Q483.6138,412.2407 482.9082,412.2407 Q480.4014,412.2407 479.0815,410.5889 Q477.7617,408.937 477.7617,405.8159 Q477.7617,402.6865 479.0815,401.0347 Q480.4014,399.3828 482.9082,399.3828 Q483.6138,399.3828 484.2612,399.5322 Q484.9087,399.6816 485.4731,399.9805 L485.4731,402.7031 Q484.8423,402.1221 484.2488,401.8523 Q483.6553,401.5825 483.0244,401.5825 Q481.6797,401.5825 480.9949,402.6492 Q480.3101,403.7158 480.3101,405.8159 Q480.3101,407.9077 480.9949,408.9744 Q481.6797,410.041 483.0244,410.041 Q483.6553,410.041 484.2488,409.7712 Q484.8423,409.5015 485.4731,408.9204 Z "/><text fill="#000000" font-family="sans-serif" font-size="12" lengthAdjust="spacingAndGlyphs" textLength="65" x="497" y="410.0352">Datasource</text><line style="stroke: #A80036; stroke-width: 1.5;" x1="469" x2="564" y1="421.5" y2="421.5"/><line style="stroke: #A80036; stroke-width: 1.5;" x1="469" x2="564" y1="429.5" y2="429.5"/><!--class DeploymentEnvironment--><rect fill="#FEFECE" filter="url(#fouz2psr74dn6)" height="60.9551" id="DeploymentEnvironment" style="stroke: #A80036; stroke-width: 1.5;" width="172" x="13.5" y="536"/><ellipse cx="28.5" cy="552" fill="#ADD1B2" rx="11" ry="11" style="stroke: #A80036; stroke-width: 1.0;"/><path d="M30.9731,558.1431 Q30.3921,558.4419 29.7529,558.5913 Q29.1138,558.7407 28.4082,558.7407 Q25.9014,558.7407 24.5815,557.0889 Q23.2617,555.437 23.2617,552.3159 Q23.2617,549.1865 24.5815,547.5347 Q25.9014,545.8828 28.4082,545.8828 Q29.1138,545.8828 29.7612,546.0322 Q30.4087,546.1816 30.9731,546.4805 L30.9731,549.2031 Q30.3423,548.6221 29.7488,548.3523 Q29.1553,548.0825 28.5244,548.0825 Q27.1797,548.0825 26.4949,549.1492 Q25.8101,550.2158 25.8101,552.3159 Q25.8101,554.4077 26.4949,555.4744 Q27.1797,556.541 28.5244,556.541 Q29.1553,556.541 29.7488,556.2712 Q30.3423,556.0015 30.9731,555.4204 Z "/><text fill="#000000" font-family="sans-serif" font-size="12" lengthAdjust="spacingAndGlyphs" textLength="140" x="42.5" y="556.5352">DeploymentEnvironment</text><line style="stroke: #A80036; stroke-width: 1.5;" x1="14.5" x2="184.5" y1="568" y2="568"/><path d="M25.5417,574.8717 C24.2767,574.8717 23.25,575.8984 23.25,577.1634 C23.25,577.3101 23.2803,577.4357 23.3078,577.5649 L20.5,580.3727 L20.5,582.206 L23.25,582.206 L23.25,580.3727 L25.0833,580.3727 L25.0833,579.456 L25.1411,579.3982 C25.2694,579.4257 25.395,579.456 25.5426,579.456 C26.8076,579.456 27.8342,578.4293 27.8342,577.1643 C27.8342,575.8993 26.8076,574.8727 25.5426,574.8727 M26.0009,575.7893 C26.5051,575.7893 26.9176,576.2018 26.9176,576.706 C26.9176,577.2102 26.5051,577.6227 26.0009,577.6227 C25.4968,577.6227 25.0843,577.2102 25.0843,576.706 C25.0843,576.2018 25.4968,575.7893 26.0009,575.7893 " fill="#FF0000" style="stroke: ; stroke-width: 0.0; stroke-dasharray: ;"/><path d="M33.5,574.8717 L32.5833,577.6217 L29.8333,577.6217 L32.125,579.4551 L31.2083,582.2051 L33.5,580.3717 L35.7917,582.2051 L34.875,579.4551 L37.1667,577.6217 L34.4167,577.6217 L33.5,574.8717 " fill="#008000" style="stroke: ; stroke-width: 0.0; stroke-dasharray: ;"/><text fill="#000000" font-family="sans-serif" font-size="11" lengthAdjust="spacingAndGlyphs" textLength="32" x="38.1667" y="582.6348">name:</text><text fill="#808080" font-family="sans-serif" font-size="11" lengthAdjust="spacingAndGlyphs" textLength="32" x="73.1667" y="582.6348">String</text><line style="stroke: #A80036; stroke-width: 1.5;" x1="14.5" x2="184.5" y1="588.9551" y2="588.9551"/><!--class DeploymentNode--><rect fill="#FEFECE" filter="url(#fouz2psr74dn6)" height="151.6406" id="DeploymentNode" style="stroke: #A80036; stroke-width: 1.5;" width="297" x="368" y="484.5"/><ellipse cx="462.25" cy="500.5" fill="#ADD1B2" rx="11" ry="11" style="stroke: #A80036; stroke-width: 1.0;"/><path d="M464.7231,506.6431 Q464.1421,506.9419 463.5029,507.0913 Q462.8638,507.2407 462.1582,507.2407 Q459.6514,507.2407 458.3315,505.5889 Q457.0117,503.937 457.0117,500.8159 Q457.0117,497.6865 458.3315,496.0347 Q459.6514,494.3828 462.1582,494.3828 Q462.8638,494.3828 463.5112,494.5322 Q464.1587,494.6816 464.7231,494.9805 L464.7231,497.7031 Q464.0923,497.1221 463.4988,496.8523 Q462.9053,496.5825 462.2744,496.5825 Q460.9297,496.5825 460.2449,497.6492 Q459.5601,498.7158 459.5601,500.8159 Q459.5601,502.9077 460.2449,503.9744 Q460.9297,505.041 462.2744,505.041 Q462.9053,505.041 463.4988,504.7712 Q464.0923,504.5015 464.7231,503.9204 Z "/><text fill="#000000" font-family="sans-serif" font-size="12" lengthAdjust="spacingAndGlyphs" textLength="100" x="482.75" y="505.0352">DeploymentNode</text><line style="stroke: #A80036; stroke-width: 1.5;" x1="369" x2="664" y1="516.5" y2="516.5"/><path d="M380.0417,523.3717 C378.7767,523.3717 377.75,524.3984 377.75,525.6634 C377.75,525.8101 377.7803,525.9357 377.8078,526.0649 L375,528.8727 L375,530.706 L377.75,530.706 L377.75,528.8727 L379.5833,528.8727 L379.5833,527.956 L379.6411,527.8982 C379.7694,527.9257 379.895,527.956 380.0426,527.956 C381.3076,527.956 382.3343,526.9293 382.3343,525.6643 C382.3343,524.3993 381.3076,523.3727 380.0426,523.3727 M380.5009,524.2893 C381.0051,524.2893 381.4176,524.7018 381.4176,525.206 C381.4176,525.7102 381.0051,526.1227 380.5009,526.1227 C379.9968,526.1227 379.5843,525.7102 379.5843,525.206 C379.5843,524.7018 379.9968,524.2893 380.5009,524.2893 " fill="#FF0000" style="stroke: ; stroke-width: 0.0; stroke-dasharray: ;"/><path d="M388,523.3717 L387.0833,526.1217 L384.3333,526.1217 L386.625,527.9551 L385.7083,530.7051 L388,528.8717 L390.2917,530.7051 L389.375,527.9551 L391.6667,526.1217 L388.9167,526.1217 L388,523.3717 " fill="#008000" style="stroke: ; stroke-width: 0.0; stroke-dasharray: ;"/><text fill="#000000" font-family="sans-serif" font-size="11" lengthAdjust="spacingAndGlyphs" textLength="32" x="392.6667" y="531.1348">name:</text><text fill="#808080" font-family="sans-serif" font-size="11" lengthAdjust="spacingAndGlyphs" textLength="32" x="427.6667" y="531.1348">String</text><path d="M375,536.3268 L375,543.6602 L375.9167,543.6602 L375.9167,536.3268 L375,536.3268 M376.8333,536.3268 L376.8333,539.9935 L378.6667,539.9935 L378.6667,540.9102 L382.3333,540.9102 L380.5,539.1052 L382.3333,537.2435 L379.5833,537.2435 L379.5833,536.3268 L376.8333,536.3268 " fill="#FF0000" style="stroke: ; stroke-width: 0.0; stroke-dasharray: ;"/><path d="M388,536.3268 L387.0833,539.0768 L384.3333,539.0768 L386.625,540.9102 L385.7083,543.6602 L388,541.8268 L390.2917,543.6602 L389.375,540.9102 L391.6667,539.0768 L388.9167,539.0768 L388,536.3268 " fill="#008000" style="stroke: ; stroke-width: 0.0; stroke-dasharray: ;"/><text fill="#000000" font-family="sans-serif" font-size="11" lengthAdjust="spacingAndGlyphs" textLength="26" x="392.6667" y="544.0898">type:</text><text fill="#808080" font-family="sans-serif" font-size="11" lengthAdjust="spacingAndGlyphs" textLength="32" x="421.6667" y="544.0898">String</text><text fill="#000000" font-family="sans-serif" font-size="11" lengthAdjust="spacingAndGlyphs" textLength="78" x="374" y="557.0449">domain_name:</text><text fill="#808080" font-family="sans-serif" font-size="11" lengthAdjust="spacingAndGlyphs" textLength="32" x="455" y="557.0449">String</text><text fill="#000000" font-family="sans-serif" font-size="11" lengthAdjust="spacingAndGlyphs" textLength="66" x="374" y="570">acme_name:</text><text fill="#808080" font-family="sans-serif" font-size="11" lengthAdjust="spacingAndGlyphs" textLength="37" x="443" y="570">String?</text><line style="stroke: #A80036; stroke-width: 1.5;" x1="369" x2="664" y1="576.3203" y2="576.3203"/><text fill="#000000" font-family="sans-serif" font-size="11" lengthAdjust="spacingAndGlyphs" textLength="99" x="374" y="590.9551">dbMigrationJobs():</text><text fill="#808080" font-family="sans-serif" font-size="11" lengthAdjust="spacingAndGlyphs" textLength="183" x="476" y="590.9551">List&lt;DbMigrationJobComponent&gt;</text><text fill="#000000" font-family="sans-serif" font-size="11" lengthAdjust="spacingAndGlyphs" textLength="46" x="374" y="603.9102">clients():</text><text fill="#808080" font-family="sans-serif" font-size="11" lengthAdjust="spacingAndGlyphs" textLength="131" x="423" y="603.9102">List&lt;ClientComponent&gt;</text><text fill="#000000" font-family="sans-serif" font-size="11" lengthAdjust="spacingAndGlyphs" textLength="55" x="374" y="616.8652">services():</text><text fill="#808080" font-family="sans-serif" font-size="11" lengthAdjust="spacingAndGlyphs" textLength="138" x="432" y="616.8652">List&lt;ServiceComponent&gt;</text><text fill="#000000" font-family="sans-serif" font-size="11" lengthAdjust="spacingAndGlyphs" textLength="68" x="374" y="629.8203">datastores():</text><text fill="#808080" font-family="sans-serif" font-size="11" lengthAdjust="spacingAndGlyphs" textLength="152" x="445" y="629.8203">List&lt;DatastoreComponent&gt;</text><!--class ServiceComponent--><rect fill="#FEFECE" filter="url(#fouz2psr74dn6)" height="48" id="ServiceComponent" style="stroke: #A80036; stroke-width: 1.5;" width="138" x="30.5" y="60.5"/><ellipse cx="45.5" cy="76.5" fill="#ADD1B2" rx="11" ry="11" style="stroke: #A80036; stroke-width: 1.0;"/><path d="M47.9731,82.6431 Q47.3921,82.9419 46.7529,83.0913 Q46.1138,83.2407 45.4082,83.2407 Q42.9014,83.2407 41.5815,81.5889 Q40.2617,79.937 40.2617,76.8159 Q40.2617,73.6865 41.5815,72.0347 Q42.9014,70.3828 45.4082,70.3828 Q46.1138,70.3828 46.7612,70.5322 Q47.4087,70.6816 47.9731,70.9805 L47.9731,73.7031 Q47.3423,73.1221 46.7488,72.8523 Q46.1553,72.5825 45.5244,72.5825 Q44.1797,72.5825 43.4949,73.6492 Q42.8101,74.7158 42.8101,76.8159 Q42.8101,78.9077 43.4949,79.9744 Q44.1797,81.041 45.5244,81.041 Q46.1553,81.041 46.7488,80.7712 Q47.3423,80.5015 47.9731,79.9204 Z "/><text fill="#000000" font-family="sans-serif" font-size="12" lengthAdjust="spacingAndGlyphs" textLength="106" x="59.5" y="81.0352">ServiceComponent</text><line style="stroke: #A80036; stroke-width: 1.5;" x1="31.5" x2="167.5" y1="92.5" y2="92.5"/><line style="stroke: #A80036; stroke-width: 1.5;" x1="31.5" x2="167.5" y1="100.5" y2="100.5"/><!--class Container--><rect fill="#FEFECE" filter="url(#fouz2psr74dn6)" height="99.8203" id="Container" style="stroke: #A80036; stroke-width: 1.5;" width="149" x="442" y="228.5"/><ellipse cx="484.9" cy="244.5" fill="#ADD1B2" rx="11" ry="11" style="stroke: #A80036; stroke-width: 1.0;"/><path d="M487.3731,250.6431 Q486.7921,250.9419 486.1529,251.0913 Q485.5138,251.2407 484.8082,251.2407 Q482.3014,251.2407 480.9815,249.5889 Q479.6617,247.937 479.6617,244.8159 Q479.6617,241.6865 480.9815,240.0347 Q482.3014,238.3828 484.8082,238.3828 Q485.5138,238.3828 486.1612,238.5322 Q486.8087,238.6816 487.3731,238.9805 L487.3731,241.7031 Q486.7423,241.1221 486.1488,240.8523 Q485.5553,240.5825 484.9244,240.5825 Q483.5797,240.5825 482.8949,241.6492 Q482.2101,242.7158 482.2101,244.8159 Q482.2101,246.9077 482.8949,247.9744 Q483.5797,249.041 484.9244,249.041 Q485.5553,249.041 486.1488,248.7712 Q486.7423,248.5015 487.3731,247.9204 Z "/><text fill="#000000" font-family="sans-serif" font-size="12" lengthAdjust="spacingAndGlyphs" textLength="55" x="505.1" y="249.0352">Container</text><line style="stroke: #A80036; stroke-width: 1.5;" x1="443" x2="590" y1="260.5" y2="260.5"/><text fill="#000000" font-family="sans-serif" font-size="11" lengthAdjust="spacingAndGlyphs" textLength="70" x="448" y="275.1348">image_name:</text><text fill="#808080" font-family="sans-serif" font-size="11" lengthAdjust="spacingAndGlyphs" textLength="32" x="521" y="275.1348">String</text><text fill="#000000" font-family="sans-serif" font-size="11" lengthAdjust="spacingAndGlyphs" textLength="102" x="448" y="288.0898">container_registry:</text><text fill="#808080" font-family="sans-serif" font-size="11" lengthAdjust="spacingAndGlyphs" textLength="32" x="553" y="288.0898">String</text><text fill="#000000" font-family="sans-serif" font-size="11" lengthAdjust="spacingAndGlyphs" textLength="58" x="448" y="301.0449">image_tag:</text><text fill="#808080" font-family="sans-serif" font-size="11" lengthAdjust="spacingAndGlyphs" textLength="32" x="509" y="301.0449">String</text><line style="stroke: #A80036; stroke-width: 1.5;" x1="443" x2="590" y1="307.3652" y2="307.3652"/><text fill="#000000" font-family="sans-serif" font-size="11" lengthAdjust="spacingAndGlyphs" textLength="43" x="448" y="322">image():</text><text fill="#808080" font-family="sans-serif" font-size="11" lengthAdjust="spacingAndGlyphs" textLength="32" x="494" y="322">String</text><!--class DeploymentComponent--><rect fill="#FEFECE" filter="url(#fouz2psr74dn6)" height="73.9102" id="DeploymentComponent" style="stroke: #A80036; stroke-width: 1.5;" width="167" x="805" y="331.5"/><ellipse cx="820" cy="347.5" fill="#ADD1B2" rx="11" ry="11" style="stroke: #A80036; stroke-width: 1.0;"/><path d="M822.4731,353.6431 Q821.8921,353.9419 821.2529,354.0913 Q820.6138,354.2407 819.9082,354.2407 Q817.4014,354.2407 816.0815,352.5889 Q814.7617,350.937 814.7617,347.8159 Q814.7617,344.6865 816.0815,343.0347 Q817.4014,341.3828 819.9082,341.3828 Q820.6138,341.3828 821.2612,341.5322 Q821.9087,341.6816 822.4731,341.9805 L822.4731,344.7031 Q821.8423,344.1221 821.2488,343.8523 Q820.6553,343.5825 820.0244,343.5825 Q818.6797,343.5825 817.9949,344.6492 Q817.3101,345.7158 817.3101,347.8159 Q817.3101,349.9077 817.9949,350.9744 Q818.6797,352.041 820.0244,352.041 Q820.6553,352.041 821.2488,351.7712 Q821.8423,351.5015 822.4731,350.9204 Z "/><text fill="#000000" font-family="sans-serif" font-size="12" lengthAdjust="spacingAndGlyphs" textLength="135" x="834" y="352.0352">DeploymentComponent</text><line style="stroke: #A80036; stroke-width: 1.5;" x1="806" x2="971" y1="363.5" y2="363.5"/><path d="M817.0417,370.3717 C815.7767,370.3717 814.75,371.3984 814.75,372.6634 C814.75,372.8101 814.7803,372.9357 814.8078,373.0649 L812,375.8727 L812,377.706 L814.75,377.706 L814.75,375.8727 L816.5833,375.8727 L816.5833,374.956 L816.6411,374.8982 C816.7694,374.9257 816.895,374.956 817.0426,374.956 C818.3076,374.956 819.3343,373.9293 819.3343,372.6643 C819.3343,371.3993 818.3076,370.3727 817.0426,370.3727 M817.5009,371.2893 C818.0051,371.2893 818.4176,371.7018 818.4176,372.206 C818.4176,372.7102 818.0051,373.1227 817.5009,373.1227 C816.9968,373.1227 816.5843,372.7102 816.5843,372.206 C816.5843,371.7018 816.9968,371.2893 817.5009,371.2893 " fill="#FF0000" style="stroke: ; stroke-width: 0.0; stroke-dasharray: ;"/><path d="M825,370.3717 L824.0833,373.1217 L821.3333,373.1217 L823.625,374.9551 L822.7083,377.7051 L825,375.8717 L827.2917,377.7051 L826.375,374.9551 L828.6667,373.1217 L825.9167,373.1217 L825,370.3717 " fill="#008000" style="stroke: ; stroke-width: 0.0; stroke-dasharray: ;"/><text fill="#000000" font-family="sans-serif" font-size="11" lengthAdjust="spacingAndGlyphs" textLength="32" x="829.6667" y="378.1348">name:</text><text fill="#808080" font-family="sans-serif" font-size="11" lengthAdjust="spacingAndGlyphs" textLength="32" x="864.6667" y="378.1348">String</text><path d="M812,383.3268 L812,390.6602 L812.9167,390.6602 L812.9167,383.3268 L812,383.3268 M813.8333,383.3268 L813.8333,386.9935 L815.6667,386.9935 L815.6667,387.9102 L819.3333,387.9102 L817.5,386.1052 L819.3333,384.2435 L816.5833,384.2435 L816.5833,383.3268 L813.8333,383.3268 " fill="#FF0000" style="stroke: ; stroke-width: 0.0; stroke-dasharray: ;"/><path d="M825,383.3268 L824.0833,386.0768 L821.3333,386.0768 L823.625,387.9102 L822.7083,390.6602 L825,388.8268 L827.2917,390.6602 L826.375,387.9102 L828.6667,386.0768 L825.9167,386.0768 L825,383.3268 " fill="#008000" style="stroke: ; stroke-width: 0.0; stroke-dasharray: ;"/><text fill="#000000" font-family="sans-serif" font-size="11" lengthAdjust="spacingAndGlyphs" textLength="26" x="829.6667" y="391.0898">type:</text><text fill="#808080" font-family="sans-serif" font-size="11" lengthAdjust="spacingAndGlyphs" textLength="32" x="858.6667" y="391.0898">String</text><line style="stroke: #A80036; stroke-width: 1.5;" x1="806" x2="971" y1="397.4102" y2="397.4102"/><!--class ClientComponent--><rect fill="#FEFECE" filter="url(#fouz2psr74dn6)" height="48" id="ClientComponent" style="stroke: #A80036; stroke-width: 1.5;" width="130" x="34.5" y="165.5"/><ellipse cx="49.5" cy="181.5" fill="#ADD1B2" rx="11" ry="11" style="stroke: #A80036; stroke-width: 1.0;"/><path d="M51.9731,187.6431 Q51.3921,187.9419 50.7529,188.0913 Q50.1138,188.2407 49.4082,188.2407 Q46.9014,188.2407 45.5815,186.5889 Q44.2617,184.937 44.2617,181.8159 Q44.2617,178.6865 45.5815,177.0347 Q46.9014,175.3828 49.4082,175.3828 Q50.1138,175.3828 50.7612,175.5322 Q51.4087,175.6816 51.9731,175.9805 L51.9731,178.7031 Q51.3423,178.1221 50.7488,177.8523 Q50.1553,177.5825 49.5244,177.5825 Q48.1797,177.5825 47.4949,178.6492 Q46.8101,179.7158 46.8101,181.8159 Q46.8101,183.9077 47.4949,184.9744 Q48.1797,186.041 49.5244,186.041 Q50.1553,186.041 50.7488,185.7712 Q51.3423,185.5015 51.9731,184.9204 Z "/><text fill="#000000" font-family="sans-serif" font-size="12" lengthAdjust="spacingAndGlyphs" textLength="98" x="63.5" y="186.0352">ClientComponent</text><line style="stroke: #A80036; stroke-width: 1.5;" x1="35.5" x2="163.5" y1="197.5" y2="197.5"/><line style="stroke: #A80036; stroke-width: 1.5;" x1="35.5" x2="163.5" y1="205.5" y2="205.5"/><!--class DbMigrationJobComponent--><rect fill="#FEFECE" filter="url(#fouz2psr74dn6)" height="48" id="DbMigrationJobComponent" style="stroke: #A80036; stroke-width: 1.5;" width="187" x="6" y="257.5"/><ellipse cx="21" cy="273.5" fill="#ADD1B2" rx="11" ry="11" style="stroke: #A80036; stroke-width: 1.0;"/><path d="M23.4731,279.6431 Q22.8921,279.9419 22.2529,280.0913 Q21.6138,280.2407 20.9082,280.2407 Q18.4014,280.2407 17.0815,278.5889 Q15.7617,276.937 15.7617,273.8159 Q15.7617,270.6865 17.0815,269.0347 Q18.4014,267.3828 20.9082,267.3828 Q21.6138,267.3828 22.2612,267.5322 Q22.9087,267.6816 23.4731,267.9805 L23.4731,270.7031 Q22.8423,270.1221 22.2488,269.8523 Q21.6553,269.5825 21.0244,269.5825 Q19.6797,269.5825 18.9949,270.6492 Q18.3101,271.7158 18.3101,273.8159 Q18.3101,275.9077 18.9949,276.9744 Q19.6797,278.041 21.0244,278.041 Q21.6553,278.041 22.2488,277.7712 Q22.8423,277.5015 23.4731,276.9204 Z "/><text fill="#000000" font-family="sans-serif" font-size="12" lengthAdjust="spacingAndGlyphs" textLength="155" x="35" y="278.0352">DbMigrationJobComponent</text><line style="stroke: #A80036; stroke-width: 1.5;" x1="7" x2="192" y1="289.5" y2="289.5"/><line style="stroke: #A80036; stroke-width: 1.5;" x1="7" x2="192" y1="297.5" y2="297.5"/><!--class Acme--><rect fill="#FEFECE" filter="url(#fouz2psr74dn6)" height="99.8203" id="Acme" style="stroke: #A80036; stroke-width: 1.5;" width="99.3333" x="839" y="510.5"/><ellipse cx="869.9" cy="526.5" fill="#ADD1B2" rx="11" ry="11" style="stroke: #A80036; stroke-width: 1.0;"/><path d="M872.3731,532.6431 Q871.7921,532.9419 871.1529,533.0913 Q870.5138,533.2407 869.8082,533.2407 Q867.3014,533.2407 865.9815,531.5889 Q864.6617,529.937 864.6617,526.8159 Q864.6617,523.6865 865.9815,522.0347 Q867.3014,520.3828 869.8082,520.3828 Q870.5138,520.3828 871.1612,520.5322 Q871.8087,520.6816 872.3731,520.9805 L872.3731,523.7031 Q871.7423,523.1221 871.1488,522.8523 Q870.5553,522.5825 869.9244,522.5825 Q868.5797,522.5825 867.8949,523.6492 Q867.2101,524.7158 867.2101,526.8159 Q867.2101,528.9077 867.8949,529.9744 Q868.5797,531.041 869.9244,531.041 Q870.5553,531.041 871.1488,530.7712 Q871.7423,530.5015 872.3731,529.9204 Z "/><text fill="#000000" font-family="sans-serif" font-size="12" lengthAdjust="spacingAndGlyphs" textLength="32" x="887.4333" y="531.0352">Acme</text><line style="stroke: #A80036; stroke-width: 1.5;" x1="840" x2="937.3333" y1="542.5" y2="542.5"/><path d="M851.0417,549.3717 C849.7767,549.3717 848.75,550.3984 848.75,551.6634 C848.75,551.8101 848.7803,551.9357 848.8078,552.0649 L846,554.8727 L846,556.706 L848.75,556.706 L848.75,554.8727 L850.5833,554.8727 L850.5833,553.956 L850.6411,553.8982 C850.7694,553.9257 850.895,553.956 851.0426,553.956 C852.3076,553.956 853.3343,552.9293 853.3343,551.6643 C853.3343,550.3993 852.3076,549.3727 851.0426,549.3727 M851.5009,550.2893 C852.0051,550.2893 852.4176,550.7018 852.4176,551.206 C852.4176,551.7102 852.0051,552.1227 851.5009,552.1227 C850.9968,552.1227 850.5843,551.7102 850.5843,551.206 C850.5843,550.7018 850.9968,550.2893 851.5009,550.2893 " fill="#FF0000" style="stroke: ; stroke-width: 0.0; stroke-dasharray: ;"/><path d="M859,549.3717 L858.0833,552.1217 L855.3333,552.1217 L857.625,553.9551 L856.7083,556.7051 L859,554.8717 L861.2917,556.7051 L860.375,553.9551 L862.6667,552.1217 L859.9167,552.1217 L859,549.3717 " fill="#008000" style="stroke: ; stroke-width: 0.0; stroke-dasharray: ;"/><text fill="#000000" font-family="sans-serif" font-size="11" lengthAdjust="spacingAndGlyphs" textLength="32" x="863.6667" y="557.1348">name:</text><text fill="#808080" font-family="sans-serif" font-size="11" lengthAdjust="spacingAndGlyphs" textLength="32" x="898.6667" y="557.1348">String</text><text fill="#000000" font-family="sans-serif" font-size="11" lengthAdjust="spacingAndGlyphs" textLength="49" x="845" y="570.0898">provider:</text><text fill="#808080" font-family="sans-serif" font-size="11" lengthAdjust="spacingAndGlyphs" textLength="32" x="897" y="570.0898">String</text><path d="M849.6667,575.2819 L848.75,578.0319 L846,578.0319 L848.2917,579.8652 L847.375,582.6152 L849.6667,580.7819 L851.9583,582.6152 L851.0417,579.8652 L853.3333,578.0319 L850.5833,578.0319 L849.6667,575.2819 " fill="#008000" style="stroke: ; stroke-width: 0.0; stroke-dasharray: ;"/><text fill="#000000" font-family="sans-serif" font-size="11" lengthAdjust="spacingAndGlyphs" textLength="31" x="854.3333" y="583.0449">email:</text><text fill="#808080" font-family="sans-serif" font-size="11" lengthAdjust="spacingAndGlyphs" textLength="32" x="888.3333" y="583.0449">String</text><path d="M849.6667,588.237 L848.75,590.987 L846,590.987 L848.2917,592.8203 L847.375,595.5703 L849.6667,593.737 L851.9583,595.5703 L851.0417,592.8203 L853.3333,590.987 L850.5833,590.987 L849.6667,588.237 " fill="#008000" style="stroke: ; stroke-width: 0.0; stroke-dasharray: ;"/><text fill="#000000" font-family="sans-serif" font-size="11" lengthAdjust="spacingAndGlyphs" textLength="43" x="854.3333" y="596">api_key:</text><text fill="#808080" font-family="sans-serif" font-size="11" lengthAdjust="spacingAndGlyphs" textLength="32" x="900.3333" y="596">String</text><line style="stroke: #A80036; stroke-width: 1.5;" x1="840" x2="937.3333" y1="602.3203" y2="602.3203"/><!--class DatastoreComponent--><rect fill="#FEFECE" filter="url(#fouz2psr74dn6)" height="48" id="DatastoreComponent" style="stroke: #A80036; stroke-width: 1.5;" width="154" x="22.5" y="345.5"/><ellipse cx="37.5" cy="361.5" fill="#ADD1B2" rx="11" ry="11" style="stroke: #A80036; stroke-width: 1.0;"/><path d="M39.9731,367.6431 Q39.3921,367.9419 38.7529,368.0913 Q38.1138,368.2407 37.4082,368.2407 Q34.9014,368.2407 33.5815,366.5889 Q32.2617,364.937 32.2617,361.8159 Q32.2617,358.6865 33.5815,357.0347 Q34.9014,355.3828 37.4082,355.3828 Q38.1138,355.3828 38.7612,355.5322 Q39.4087,355.6816 39.9731,355.9805 L39.9731,358.7031 Q39.3423,358.1221 38.7488,357.8523 Q38.1553,357.5825 37.5244,357.5825 Q36.1797,357.5825 35.4949,358.6492 Q34.8101,359.7158 34.8101,361.8159 Q34.8101,363.9077 35.4949,364.9744 Q36.1797,366.041 37.5244,366.041 Q38.1553,366.041 38.7488,365.7712 Q39.3423,365.5015 39.9731,364.9204 Z "/><text fill="#000000" font-family="sans-serif" font-size="12" lengthAdjust="spacingAndGlyphs" textLength="122" x="51.5" y="366.0352">DatastoreComponent</text><line style="stroke: #A80036; stroke-width: 1.5;" x1="23.5" x2="175.5" y1="377.5" y2="377.5"/><line style="stroke: #A80036; stroke-width: 1.5;" x1="23.5" x2="175.5" y1="385.5" y2="385.5"/><!--class GkeCluster--><rect fill="#FEFECE" filter="url(#fouz2psr74dn6)" height="60.9551" id="GkeCluster" style="stroke: #A80036; stroke-width: 1.5;" width="139.3333" x="30" y="632"/><ellipse cx="64.95" cy="648" fill="#ADD1B2" rx="11" ry="11" style="stroke: #A80036; stroke-width: 1.0;"/><path d="M67.4231,654.1431 Q66.8421,654.4419 66.2029,654.5913 Q65.5638,654.7407 64.8582,654.7407 Q62.3514,654.7407 61.0315,653.0889 Q59.7117,651.437 59.7117,648.3159 Q59.7117,645.1865 61.0315,643.5347 Q62.3514,641.8828 64.8582,641.8828 Q65.5638,641.8828 66.2112,642.0322 Q66.8587,642.1816 67.4231,642.4805 L67.4231,645.2031 Q66.7923,644.6221 66.1988,644.3523 Q65.6053,644.0825 64.9744,644.0825 Q63.6297,644.0825 62.9449,645.1492 Q62.2601,646.2158 62.2601,648.3159 Q62.2601,650.4077 62.9449,651.4744 Q63.6297,652.541 64.9744,652.541 Q65.6053,652.541 66.1988,652.2712 Q66.7923,652.0015 67.4231,651.4204 Z "/><text fill="#000000" font-family="sans-serif" font-size="12" lengthAdjust="spacingAndGlyphs" textLength="63" x="83.3833" y="652.5352">GkeCluster</text><line style="stroke: #A80036; stroke-width: 1.5;" x1="31" x2="168.3333" y1="664" y2="664"/><path d="M40.6667,670.8717 L39.75,673.6217 L37,673.6217 L39.2917,675.4551 L38.375,678.2051 L40.6667,676.3717 L42.9583,678.2051 L42.0417,675.4551 L44.3333,673.6217 L41.5833,673.6217 L40.6667,670.8717 " fill="#008000" style="stroke: ; stroke-width: 0.0; stroke-dasharray: ;"/><text fill="#000000" font-family="sans-serif" font-size="11" lengthAdjust="spacingAndGlyphs" textLength="101" x="45.3333" y="678.6348">number_of_nodes:</text><text fill="#808080" font-family="sans-serif" font-size="11" lengthAdjust="spacingAndGlyphs" textLength="14" x="149.3333" y="678.6348">Int</text><line style="stroke: #A80036; stroke-width: 1.5;" x1="31" x2="168.3333" y1="684.9551" y2="684.9551"/><!--class D4dLocalCluster--><rect fill="#FEFECE" filter="url(#fouz2psr74dn6)" height="60.9551" id="D4dLocalCluster" style="stroke: #A80036; stroke-width: 1.5;" width="137.3333" x="31" y="440"/><ellipse cx="51.1" cy="456" fill="#ADD1B2" rx="11" ry="11" style="stroke: #A80036; stroke-width: 1.0;"/><path d="M53.5731,462.1431 Q52.9921,462.4419 52.3529,462.5913 Q51.7138,462.7407 51.0082,462.7407 Q48.5014,462.7407 47.1815,461.0889 Q45.8617,459.437 45.8617,456.3159 Q45.8617,453.1865 47.1815,451.5347 Q48.5014,449.8828 51.0082,449.8828 Q51.7138,449.8828 52.3612,450.0322 Q53.0087,450.1816 53.5731,450.4805 L53.5731,453.2031 Q52.9423,452.6221 52.3488,452.3523 Q51.7553,452.0825 51.1244,452.0825 Q49.7797,452.0825 49.0949,453.1492 Q48.4101,454.2158 48.4101,456.3159 Q48.4101,458.4077 49.0949,459.4744 Q49.7797,460.541 51.1244,460.541 Q51.7553,460.541 52.3488,460.2712 Q52.9423,460.0015 53.5731,459.4204 Z "/><text fill="#000000" font-family="sans-serif" font-size="12" lengthAdjust="spacingAndGlyphs" textLength="94" x="66.2333" y="460.5352">D4dLocalCluster</text><line style="stroke: #A80036; stroke-width: 1.5;" x1="32" x2="167.3333" y1="472" y2="472"/><line style="stroke: #A80036; stroke-width: 1.5;" x1="32" x2="167.3333" y1="480" y2="480"/><path d="M41.6383,486.8717 L38.9167,489.6217 L40.75,489.6217 L40.75,494.2051 L42.5833,494.2051 L42.5833,489.6217 L44.4167,489.6217 L41.6383,486.8717 " fill="#008000" style="stroke: ; stroke-width: 0.0; stroke-dasharray: ;"/><text fill="#000000" font-family="sans-serif" font-size="11" lengthAdjust="spacingAndGlyphs" textLength="81" x="46.3333" y="494.6348">domainName():</text><text fill="#808080" font-family="sans-serif" font-size="11" lengthAdjust="spacingAndGlyphs" textLength="32" x="130.3333" y="494.6348">String</text><!--link DeploymentEnvironment to DeploymentNode--><path d="M198.8717,565.0702 C249.2998,564.3446 311.5871,563.4484 367.6069,562.6423 " fill="none" id="DeploymentEnvironment-DeploymentNode" style="stroke: #A80036; stroke-width: 1.0;"/><polygon fill="#A80036" points="185.6497,565.2604,191.7067,569.1736,197.6485,565.0877,191.5915,561.1744,185.6497,565.2604" style="stroke: #A80036; stroke-width: 1.0;"/><text fill="#000000" font-family="sans-serif" font-size="13" lengthAdjust="spacingAndGlyphs" textLength="38" x="261.5" y="559.0684">nodes</text><text fill="#000000" font-family="sans-serif" font-size="13" lengthAdjust="spacingAndGlyphs" textLength="22" x="337.8621" y="575.6939">1..*</text><!--link ServiceComponent to Container--><path d="M138.1103,108.7706 C155.3052,120.0189 175.5658,133.8889 193,147.5 C207.1394,158.5388 207.5837,165.3285 223,174.5 C240.9192,185.1605 343.8369,220.7437 422.7957,247.3383 " fill="none" id="ServiceComponent-Container" style="stroke: #A80036; stroke-width: 1.0;"/><polygon fill="none" points="425.0471,240.7101,441.777,253.7144,420.5891,253.9814,425.0471,240.7101" style="stroke: #A80036; stroke-width: 1.0;"/><!--link ServiceComponent to Service--><path d="M168.8272,81.6737 C258.4537,78.0199 411.2237,71.7918 480.4763,68.9686 " fill="none" id="ServiceComponent-Service" style="stroke: #A80036; stroke-width: 1.0;"/><text fill="#000000" font-family="sans-serif" font-size="13" lengthAdjust="spacingAndGlyphs" textLength="29" x="266" y="72.0684">spec</text><text fill="#000000" font-family="sans-serif" font-size="13" lengthAdjust="spacingAndGlyphs" textLength="8" x="464.5966" y="83.3332">1</text><!--link Container to DeploymentComponent--><path d="M591.3323,296.6046 C646.9232,310.054 723.4406,328.5663 784.9081,343.4374 " fill="none" id="Container-DeploymentComponent" style="stroke: #A80036; stroke-width: 1.0;"/><polygon fill="none" points="786.914,336.7207,804.7071,348.2275,783.6218,350.3281,786.914,336.7207" style="stroke: #A80036; stroke-width: 1.0;"/><!--link ClientComponent to Container--><path d="M164.6563,203.4062 C233.773,218.1578 343.622,241.6028 422.1897,258.3714 " fill="none" id="ClientComponent-Container" style="stroke: #A80036; stroke-width: 1.0;"/><polygon fill="none" points="423.8504,251.5681,441.9488,262.5886,420.9282,265.2598,423.8504,251.5681" style="stroke: #A80036; stroke-width: 1.0;"/><!--link ClientComponent to Client--><path d="M164.6563,184.6562 C255.366,177.9128 416.234,165.9538 484.4711,160.881 " fill="none" id="ClientComponent-Client" style="stroke: #A80036; stroke-width: 1.0;"/><text fill="#000000" font-family="sans-serif" font-size="13" lengthAdjust="spacingAndGlyphs" textLength="29" x="266" y="169.0684">spec</text><text fill="#000000" font-family="sans-serif" font-size="13" lengthAdjust="spacingAndGlyphs" textLength="8" x="468.5898" y="175.6448">1</text><!--link DbMigrationJobComponent to Container--><path d="M193.0829,280.8267 C261.1967,280.3367 353.1059,279.6755 421.5379,279.1832 " fill="none" id="DbMigrationJobComponent-Container" style="stroke: #A80036; stroke-width: 1.0;"/><polygon fill="none" points="421.9196,272.1804,441.9694,279.0362,422.0203,286.18,421.9196,272.1804" style="stroke: #A80036; stroke-width: 1.0;"/><!--link DbMigrationJobComponent to Datasource--><path d="M175.4993,305.5573 C260.539,332.4764 395.7912,375.29 467.7415,398.0656 " fill="none" id="DbMigrationJobComponent-Datasource" style="stroke: #A80036; stroke-width: 1.0;"/><text fill="#000000" font-family="sans-serif" font-size="13" lengthAdjust="spacingAndGlyphs" textLength="113" x="224" y="321.0684">target_datasource</text><text fill="#000000" font-family="sans-serif" font-size="13" lengthAdjust="spacingAndGlyphs" textLength="8" x="451.9926" y="409.4914">1</text><!--link DeploymentNode to DeploymentComponent--><path d="M675.5602,478.4044 C724.73,453.0264 776.4658,426.3241 816.6287,405.5948 " fill="none" id="DeploymentNode-DeploymentComponent" style="stroke: #A80036; stroke-width: 1.0;"/><polygon fill="#A80036" points="663.7914,484.4787,670.9577,485.2813,674.4548,478.975,667.2885,478.1724,663.7914,484.4787" style="stroke: #A80036; stroke-width: 1.0;"/><text fill="#000000" font-family="sans-serif" font-size="13" lengthAdjust="spacingAndGlyphs" textLength="78" x="696" y="428.0684">components</text><text fill="#000000" font-family="sans-serif" font-size="13" lengthAdjust="spacingAndGlyphs" textLength="6" x="797.7602" y="425.8623">*</text><!--link DeploymentNode to Acme--><path d="M665.128,560.5 C726.8527,560.5 794.3045,560.5 838.7563,560.5 " fill="none" id="DeploymentNode-Acme" style="stroke: #A80036; stroke-width: 1.0;"/><text fill="#000000" font-family="sans-serif" font-size="13" lengthAdjust="spacingAndGlyphs" textLength="33" x="718.5" y="557.0684">acme</text><text fill="#000000" font-family="sans-serif" font-size="13" lengthAdjust="spacingAndGlyphs" textLength="24" x="806.824" y="574.0607">0..1</text><!--link DatastoreComponent to Container--><path d="M176.5486,351.8877 C191.9286,348.4126 207.972,344.8164 223,341.5 C289.5784,326.8076 364.7586,310.679 422.3616,298.4191 " fill="none" id="DatastoreComponent-Container" style="stroke: #A80036; stroke-width: 1.0;"/><polygon fill="none" points="420.9421,291.5645,441.9605,294.2526,423.8533,305.2585,420.9421,291.5645" style="stroke: #A80036; stroke-width: 1.0;"/><!--link DatastoreComponent to Datasource--><path d="M146.5695,393.5354 C169.0756,403.7162 196.7758,414.3928 223,419.5 C307.9185,436.038 409.2674,428.0057 467.92,420.716 " fill="none" id="DatastoreComponent-Datasource" style="stroke: #A80036; stroke-width: 1.0;"/><text fill="#000000" font-family="sans-serif" font-size="13" lengthAdjust="spacingAndGlyphs" textLength="29" x="266" y="416.0684">spec</text><text fill="#000000" font-family="sans-serif" font-size="13" lengthAdjust="spacingAndGlyphs" textLength="8" x="451.8687" y="435.5615">1</text><!--link GkeCluster to DeploymentNode--><path d="M169.2964,645.4275 C218.1485,633.4781 285.5929,616.9809 348.054,601.7026 " fill="none" id="GkeCluster-DeploymentNode" style="stroke: #A80036; stroke-width: 1.0;"/><polygon fill="none" points="346.5991,594.8522,367.6896,596.8997,349.9256,608.4513,346.5991,594.8522" style="stroke: #A80036; stroke-width: 1.0;"/><!--link D4dLocalCluster to DeploymentNode--><path d="M168.3591,485.3617 C217.3092,495.9265 285.264,510.593 348.1533,524.1662 " fill="none" id="D4dLocalCluster-DeploymentNode" style="stroke: #A80036; stroke-width: 1.0;"/><polygon fill="none" points="349.8485,517.3708,367.9216,528.4327,346.8949,531.0557,349.8485,517.3708" style="stroke: #A80036; stroke-width: 1.0;"/><!--
@startuml
left to right direction

class DeploymentEnvironment {
  <color:RED><&key></color><color:Green><&star></color>name: <color:GRAY>String</color>
}






DeploymentEnvironment *- - "1..*" DeploymentNode : nodes



class ServiceComponent {
}

ServiceComponent - -|> Container






package laplacian_arch.service_api_arch {
  class Service {
  }
}


ServiceComponent - - "1" Service : spec



class Container {
  image_name: <color:GRAY>String</color>
  container_registry: <color:GRAY>String</color>
  image_tag: <color:GRAY>String</color>
  image(): <color:GRAY>String</color>
}

Container - -|> DeploymentComponent




class ClientComponent {
}

ClientComponent - -|> Container






package laplacian_arch.client_app_arch {
  class Client {
  }
}


ClientComponent - - "1" Client : spec



class DbMigrationJobComponent {
}

DbMigrationJobComponent - -|> Container






package laplacian_arch.datasource {
  class Datasource {
  }
}


DbMigrationJobComponent - - "1" Datasource : target_datasource



class DeploymentNode {
  <color:RED><&key></color><color:Green><&star></color>name: <color:GRAY>String</color>
  <color:RED><&flag></color><color:Green><&star></color>type: <color:GRAY>String</color>
  domain_name: <color:GRAY>String</color>
  acme_name: <color:GRAY>String?</color>
  dbMigrationJobs(): <color:GRAY>List<DbMigrationJobComponent></color>
  clients(): <color:GRAY>List<ClientComponent></color>
  services(): <color:GRAY>List<ServiceComponent></color>
  datastores(): <color:GRAY>List<DatastoreComponent></color>
}






DeploymentNode *- - "*" DeploymentComponent : components






DeploymentNode - - "0..1" Acme : acme



class DatastoreComponent {
}

DatastoreComponent - -|> Container






package laplacian_arch.datasource {
  class Datasource {
  }
}


DatastoreComponent - - "1" Datasource : spec



class DeploymentComponent {
  <color:RED><&key></color><color:Green><&star></color>name: <color:GRAY>String</color>
  <color:RED><&flag></color><color:Green><&star></color>type: <color:GRAY>String</color>
}



class GkeCluster {
  <color:Green><&star></color>number_of_nodes: <color:GRAY>Int</color>
}

GkeCluster - -|> DeploymentNode




class D4dLocalCluster {
  <color:GREEN><&arrow-thick-top></color>domainName(): <color:GRAY>String</color>
}

D4dLocalCluster - -|> DeploymentNode




class Acme {
  <color:RED><&key></color><color:Green><&star></color>name: <color:GRAY>String</color>
  provider: <color:GRAY>String</color>
  <color:Green><&star></color>email: <color:GRAY>String</color>
  <color:Green><&star></color>api_key: <color:GRAY>String</color>
}



@enduml

PlantUML version 1.2019.05(Sun Apr 21 01:45:36 JST 2019)
(GPL source distribution)
Java Runtime: OpenJDK Runtime Environment
JVM: OpenJDK 64-Bit Server VM
Java Version: 1.8.0_172-b01
Operating System: Mac OS X
OS Version: 10.14.5
Default Encoding: UTF-8
Language: en
Country: JP
--></g></svg>