<?xml version="1.0" encoding="UTF-8" standalone="no"?><svg xmlns="http://www.w3.org/2000/svg" xmlns:xlink="http://www.w3.org/1999/xlink" contentScriptType="application/ecmascript" contentStyleType="text/css" height="627px" preserveAspectRatio="none" style="width:983px;height:627px;" version="1.1" viewBox="0 0 983 627" width="983px" zoomAndPan="magnify"><defs><filter height="300%" id="fy3ps5yuxk83" width="300%" x="-1" y="-1"><feGaussianBlur result="blurOut" stdDeviation="2.0"/><feColorMatrix in="blurOut" result="blurOut2" type="matrix" values="0 0 0 0 0 0 0 0 0 0 0 0 0 0 0 0 0 0 .4 0"/><feOffset dx="4.0" dy="4.0" in="blurOut2" result="blurOut3"/><feBlend in="SourceGraphic" in2="blurOut3" mode="normal"/></filter></defs><g><!--cluster laplacian_arch.service_api_arch--><polygon fill="#FFFFFF" filter="url(#fy3ps5yuxk83)" points="398.5,284,624.5,284,631.5,306.4883,634.5,306.4883,634.5,367,398.5,367,398.5,284" style="stroke: #000000; stroke-width: 1.5;"/><line style="stroke: #000000; stroke-width: 1.5;" x1="398.5" x2="631.5" y1="306.4883" y2="306.4883"/><text fill="#000000" font-family="sans-serif" font-size="14" font-weight="bold" lengthAdjust="spacingAndGlyphs" textLength="220" x="402.5" y="299.5352">laplacian_arch.service_api_arch</text><!--cluster laplacian_arch.client_app_arch--><polygon fill="#FFFFFF" filter="url(#fy3ps5yuxk83)" points="401.5,193,621.5,193,628.5,215.4883,631.5,215.4883,631.5,276,401.5,276,401.5,193" style="stroke: #000000; stroke-width: 1.5;"/><line style="stroke: #000000; stroke-width: 1.5;" x1="401.5" x2="628.5" y1="215.4883" y2="215.4883"/><text fill="#000000" font-family="sans-serif" font-size="14" font-weight="bold" lengthAdjust="spacingAndGlyphs" textLength="214" x="405.5" y="208.5352">laplacian_arch.client_app_arch</text><!--cluster laplacian_arch.datasource--><polygon fill="#FFFFFF" filter="url(#fy3ps5yuxk83)" points="418,530,606,530,613,552.4883,616,552.4883,616,613,418,613,418,530" style="stroke: #000000; stroke-width: 1.5;"/><line style="stroke: #000000; stroke-width: 1.5;" x1="418" x2="613" y1="552.4883" y2="552.4883"/><text fill="#000000" font-family="sans-serif" font-size="14" font-weight="bold" lengthAdjust="spacingAndGlyphs" textLength="182" x="422" y="545.5352">laplacian_arch.datasource</text><!--class Service--><rect fill="#FEFECE" filter="url(#fy3ps5yuxk83)" height="48" id="Service" style="stroke: #A80036; stroke-width: 1.5;" width="72" x="480.5" y="311"/><ellipse cx="495.5" cy="327" fill="#ADD1B2" rx="11" ry="11" style="stroke: #A80036; stroke-width: 1.0;"/><path d="M497.9731,333.1431 Q497.3921,333.4419 496.7529,333.5913 Q496.1138,333.7407 495.4082,333.7407 Q492.9014,333.7407 491.5815,332.0889 Q490.2617,330.437 490.2617,327.3159 Q490.2617,324.1865 491.5815,322.5347 Q492.9014,320.8828 495.4082,320.8828 Q496.1138,320.8828 496.7612,321.0322 Q497.4087,321.1816 497.9731,321.4805 L497.9731,324.2031 Q497.3423,323.6221 496.7488,323.3523 Q496.1553,323.0825 495.5244,323.0825 Q494.1797,323.0825 493.4949,324.1492 Q492.8101,325.2158 492.8101,327.3159 Q492.8101,329.4077 493.4949,330.4744 Q494.1797,331.541 495.5244,331.541 Q496.1553,331.541 496.7488,331.2712 Q497.3423,331.0015 497.9731,330.4204 Z "/><text fill="#000000" font-family="sans-serif" font-size="12" lengthAdjust="spacingAndGlyphs" textLength="40" x="509.5" y="331.5352">Service</text><line style="stroke: #A80036; stroke-width: 1.5;" x1="481.5" x2="551.5" y1="343" y2="343"/><line style="stroke: #A80036; stroke-width: 1.5;" x1="481.5" x2="551.5" y1="351" y2="351"/><!--class Client--><rect fill="#FEFECE" filter="url(#fy3ps5yuxk83)" height="48" id="Client" style="stroke: #A80036; stroke-width: 1.5;" width="64" x="484.5" y="220"/><ellipse cx="499.5" cy="236" fill="#ADD1B2" rx="11" ry="11" style="stroke: #A80036; stroke-width: 1.0;"/><path d="M501.9731,242.1431 Q501.3921,242.4419 500.7529,242.5913 Q500.1138,242.7407 499.4082,242.7407 Q496.9014,242.7407 495.5815,241.0889 Q494.2617,239.437 494.2617,236.3159 Q494.2617,233.1865 495.5815,231.5347 Q496.9014,229.8828 499.4082,229.8828 Q500.1138,229.8828 500.7612,230.0322 Q501.4087,230.1816 501.9731,230.4805 L501.9731,233.2031 Q501.3423,232.6221 500.7488,232.3523 Q500.1553,232.0825 499.5244,232.0825 Q498.1797,232.0825 497.4949,233.1492 Q496.8101,234.2158 496.8101,236.3159 Q496.8101,238.4077 497.4949,239.4744 Q498.1797,240.541 499.5244,240.541 Q500.1553,240.541 500.7488,240.2712 Q501.3423,240.0015 501.9731,239.4204 Z "/><text fill="#000000" font-family="sans-serif" font-size="12" lengthAdjust="spacingAndGlyphs" textLength="32" x="513.5" y="240.5352">Client</text><line style="stroke: #A80036; stroke-width: 1.5;" x1="485.5" x2="547.5" y1="252" y2="252"/><line style="stroke: #A80036; stroke-width: 1.5;" x1="485.5" x2="547.5" y1="260" y2="260"/><!--class Datasource--><rect fill="#FEFECE" filter="url(#fy3ps5yuxk83)" height="48" id="Datasource" style="stroke: #A80036; stroke-width: 1.5;" width="97" x="468" y="557"/><ellipse cx="483" cy="573" fill="#ADD1B2" rx="11" ry="11" style="stroke: #A80036; stroke-width: 1.0;"/><path d="M485.4731,579.1431 Q484.8921,579.4419 484.2529,579.5913 Q483.6138,579.7407 482.9082,579.7407 Q480.4014,579.7407 479.0815,578.0889 Q477.7617,576.437 477.7617,573.3159 Q477.7617,570.1865 479.0815,568.5347 Q480.4014,566.8828 482.9082,566.8828 Q483.6138,566.8828 484.2612,567.0322 Q484.9087,567.1816 485.4731,567.4805 L485.4731,570.2031 Q484.8423,569.6221 484.2488,569.3523 Q483.6553,569.0825 483.0244,569.0825 Q481.6797,569.0825 480.9949,570.1492 Q480.3101,571.2158 480.3101,573.3159 Q480.3101,575.4077 480.9949,576.4744 Q481.6797,577.541 483.0244,577.541 Q483.6553,577.541 484.2488,577.2712 Q484.8423,577.0015 485.4731,576.4204 Z "/><text fill="#000000" font-family="sans-serif" font-size="12" lengthAdjust="spacingAndGlyphs" textLength="65" x="497" y="577.5352">Datasource</text><line style="stroke: #A80036; stroke-width: 1.5;" x1="469" x2="564" y1="589" y2="589"/><line style="stroke: #A80036; stroke-width: 1.5;" x1="469" x2="564" y1="597" y2="597"/><!--class DeploymentEnvironment--><rect fill="#FEFECE" filter="url(#fy3ps5yuxk83)" height="60.9551" id="DeploymentEnvironment" style="stroke: #A80036; stroke-width: 1.5;" width="172" x="13.5" y="91.5"/><ellipse cx="28.5" cy="107.5" fill="#ADD1B2" rx="11" ry="11" style="stroke: #A80036; stroke-width: 1.0;"/><path d="M30.9731,113.6431 Q30.3921,113.9419 29.7529,114.0913 Q29.1138,114.2407 28.4082,114.2407 Q25.9014,114.2407 24.5815,112.5889 Q23.2617,110.937 23.2617,107.8159 Q23.2617,104.6865 24.5815,103.0347 Q25.9014,101.3828 28.4082,101.3828 Q29.1138,101.3828 29.7612,101.5322 Q30.4087,101.6816 30.9731,101.9805 L30.9731,104.7031 Q30.3423,104.1221 29.7488,103.8523 Q29.1553,103.5825 28.5244,103.5825 Q27.1797,103.5825 26.4949,104.6492 Q25.8101,105.7158 25.8101,107.8159 Q25.8101,109.9077 26.4949,110.9744 Q27.1797,112.041 28.5244,112.041 Q29.1553,112.041 29.7488,111.7712 Q30.3423,111.5015 30.9731,110.9204 Z "/><text fill="#000000" font-family="sans-serif" font-size="12" lengthAdjust="spacingAndGlyphs" textLength="140" x="42.5" y="112.0352">DeploymentEnvironment</text><line style="stroke: #A80036; stroke-width: 1.5;" x1="14.5" x2="184.5" y1="123.5" y2="123.5"/><path d="M25.5417,130.3717 C24.2767,130.3717 23.25,131.3984 23.25,132.6634 C23.25,132.8101 23.2803,132.9357 23.3078,133.0649 L20.5,135.8727 L20.5,137.706 L23.25,137.706 L23.25,135.8727 L25.0833,135.8727 L25.0833,134.956 L25.1411,134.8982 C25.2694,134.9257 25.395,134.956 25.5426,134.956 C26.8076,134.956 27.8342,133.9293 27.8342,132.6643 C27.8342,131.3993 26.8076,130.3727 25.5426,130.3727 M26.0009,131.2893 C26.5051,131.2893 26.9176,131.7018 26.9176,132.206 C26.9176,132.7102 26.5051,133.1227 26.0009,133.1227 C25.4968,133.1227 25.0843,132.7102 25.0843,132.206 C25.0843,131.7018 25.4968,131.2893 26.0009,131.2893 " fill="#FF0000" style="stroke: ; stroke-width: 0.0; stroke-dasharray: ;"/><path d="M33.5,130.3717 L32.5833,133.1217 L29.8333,133.1217 L32.125,134.9551 L31.2083,137.7051 L33.5,135.8717 L35.7917,137.7051 L34.875,134.9551 L37.1667,133.1217 L34.4167,133.1217 L33.5,130.3717 " fill="#008000" style="stroke: ; stroke-width: 0.0; stroke-dasharray: ;"/><text fill="#000000" font-family="sans-serif" font-size="11" lengthAdjust="spacingAndGlyphs" textLength="32" x="38.1667" y="138.1348">name:</text><text fill="#808080" font-family="sans-serif" font-size="11" lengthAdjust="spacingAndGlyphs" textLength="32" x="73.1667" y="138.1348">String</text><line style="stroke: #A80036; stroke-width: 1.5;" x1="14.5" x2="184.5" y1="144.4551" y2="144.4551"/><!--class DeploymentNode--><rect fill="#FEFECE" filter="url(#fy3ps5yuxk83)" height="125.7305" id="DeploymentNode" style="stroke: #A80036; stroke-width: 1.5;" width="297" x="368" y="59"/><ellipse cx="462.25" cy="75" fill="#ADD1B2" rx="11" ry="11" style="stroke: #A80036; stroke-width: 1.0;"/><path d="M464.7231,81.1431 Q464.1421,81.4419 463.5029,81.5913 Q462.8638,81.7407 462.1582,81.7407 Q459.6514,81.7407 458.3315,80.0889 Q457.0117,78.437 457.0117,75.3159 Q457.0117,72.1865 458.3315,70.5347 Q459.6514,68.8828 462.1582,68.8828 Q462.8638,68.8828 463.5112,69.0322 Q464.1587,69.1816 464.7231,69.4805 L464.7231,72.2031 Q464.0923,71.6221 463.4988,71.3523 Q462.9053,71.0825 462.2744,71.0825 Q460.9297,71.0825 460.2449,72.1492 Q459.5601,73.2158 459.5601,75.3159 Q459.5601,77.4077 460.2449,78.4744 Q460.9297,79.541 462.2744,79.541 Q462.9053,79.541 463.4988,79.2712 Q464.0923,79.0015 464.7231,78.4204 Z "/><text fill="#000000" font-family="sans-serif" font-size="12" lengthAdjust="spacingAndGlyphs" textLength="100" x="482.75" y="79.5352">DeploymentNode</text><line style="stroke: #A80036; stroke-width: 1.5;" x1="369" x2="664" y1="91" y2="91"/><path d="M380.0417,97.8717 C378.7767,97.8717 377.75,98.8984 377.75,100.1634 C377.75,100.3101 377.7803,100.4357 377.8078,100.5649 L375,103.3727 L375,105.206 L377.75,105.206 L377.75,103.3727 L379.5833,103.3727 L379.5833,102.456 L379.6411,102.3982 C379.7694,102.4257 379.895,102.456 380.0426,102.456 C381.3076,102.456 382.3343,101.4293 382.3343,100.1643 C382.3343,98.8993 381.3076,97.8727 380.0426,97.8727 M380.5009,98.7893 C381.0051,98.7893 381.4176,99.2018 381.4176,99.706 C381.4176,100.2102 381.0051,100.6227 380.5009,100.6227 C379.9968,100.6227 379.5843,100.2102 379.5843,99.706 C379.5843,99.2018 379.9968,98.7893 380.5009,98.7893 " fill="#FF0000" style="stroke: ; stroke-width: 0.0; stroke-dasharray: ;"/><path d="M388,97.8717 L387.0833,100.6217 L384.3333,100.6217 L386.625,102.4551 L385.7083,105.2051 L388,103.3717 L390.2917,105.2051 L389.375,102.4551 L391.6667,100.6217 L388.9167,100.6217 L388,97.8717 " fill="#008000" style="stroke: ; stroke-width: 0.0; stroke-dasharray: ;"/><text fill="#000000" font-family="sans-serif" font-size="11" lengthAdjust="spacingAndGlyphs" textLength="32" x="392.6667" y="105.6348">name:</text><text fill="#808080" font-family="sans-serif" font-size="11" lengthAdjust="spacingAndGlyphs" textLength="32" x="427.6667" y="105.6348">String</text><path d="M378.6667,110.8268 L377.75,113.5768 L375,113.5768 L377.2917,115.4102 L376.375,118.1602 L378.6667,116.3268 L380.9583,118.1602 L380.0417,115.4102 L382.3333,113.5768 L379.5833,113.5768 L378.6667,110.8268 " fill="#008000" style="stroke: ; stroke-width: 0.0; stroke-dasharray: ;"/><path d="M384.3333,110.8268 L384.3333,118.1602 L385.25,118.1602 L385.25,110.8268 L384.3333,110.8268 M386.1667,110.8268 L386.1667,114.4935 L388,114.4935 L388,115.4102 L391.6667,115.4102 L389.8333,113.6052 L391.6667,111.7435 L388.9167,111.7435 L388.9167,110.8268 L386.1667,110.8268 " fill="#008000" style="stroke: ; stroke-width: 0.0; stroke-dasharray: ;"/><text fill="#000000" font-family="sans-serif" font-size="11" lengthAdjust="spacingAndGlyphs" textLength="26" x="392.6667" y="118.5898">type:</text><text fill="#808080" font-family="sans-serif" font-size="11" lengthAdjust="spacingAndGlyphs" textLength="32" x="421.6667" y="118.5898">String</text><line style="stroke: #A80036; stroke-width: 1.5;" x1="369" x2="664" y1="124.9102" y2="124.9102"/><text fill="#000000" font-family="sans-serif" font-size="11" lengthAdjust="spacingAndGlyphs" textLength="99" x="374" y="139.5449">dbMigrationJobs():</text><text fill="#808080" font-family="sans-serif" font-size="11" lengthAdjust="spacingAndGlyphs" textLength="183" x="476" y="139.5449">List&lt;DbMigrationJobComponent&gt;</text><text fill="#000000" font-family="sans-serif" font-size="11" lengthAdjust="spacingAndGlyphs" textLength="46" x="374" y="152.5">clients():</text><text fill="#808080" font-family="sans-serif" font-size="11" lengthAdjust="spacingAndGlyphs" textLength="131" x="423" y="152.5">List&lt;ClientComponent&gt;</text><text fill="#000000" font-family="sans-serif" font-size="11" lengthAdjust="spacingAndGlyphs" textLength="55" x="374" y="165.4551">services():</text><text fill="#808080" font-family="sans-serif" font-size="11" lengthAdjust="spacingAndGlyphs" textLength="138" x="432" y="165.4551">List&lt;ServiceComponent&gt;</text><text fill="#000000" font-family="sans-serif" font-size="11" lengthAdjust="spacingAndGlyphs" textLength="68" x="374" y="178.4102">datastores():</text><text fill="#808080" font-family="sans-serif" font-size="11" lengthAdjust="spacingAndGlyphs" textLength="152" x="445" y="178.4102">List&lt;DatastoreComponent&gt;</text><!--class ServiceComponent--><rect fill="#FEFECE" filter="url(#fy3ps5yuxk83)" height="48" id="ServiceComponent" style="stroke: #A80036; stroke-width: 1.5;" width="138" x="30.5" y="392"/><ellipse cx="45.5" cy="408" fill="#ADD1B2" rx="11" ry="11" style="stroke: #A80036; stroke-width: 1.0;"/><path d="M47.9731,414.1431 Q47.3921,414.4419 46.7529,414.5913 Q46.1138,414.7407 45.4082,414.7407 Q42.9014,414.7407 41.5815,413.0889 Q40.2617,411.437 40.2617,408.3159 Q40.2617,405.1865 41.5815,403.5347 Q42.9014,401.8828 45.4082,401.8828 Q46.1138,401.8828 46.7612,402.0322 Q47.4087,402.1816 47.9731,402.4805 L47.9731,405.2031 Q47.3423,404.6221 46.7488,404.3523 Q46.1553,404.0825 45.5244,404.0825 Q44.1797,404.0825 43.4949,405.1492 Q42.8101,406.2158 42.8101,408.3159 Q42.8101,410.4077 43.4949,411.4744 Q44.1797,412.541 45.5244,412.541 Q46.1553,412.541 46.7488,412.2712 Q47.3423,412.0015 47.9731,411.4204 Z "/><text fill="#000000" font-family="sans-serif" font-size="12" lengthAdjust="spacingAndGlyphs" textLength="106" x="59.5" y="412.5352">ServiceComponent</text><line style="stroke: #A80036; stroke-width: 1.5;" x1="31.5" x2="167.5" y1="424" y2="424"/><line style="stroke: #A80036; stroke-width: 1.5;" x1="31.5" x2="167.5" y1="432" y2="432"/><!--class Container--><rect fill="#FEFECE" filter="url(#fy3ps5yuxk83)" height="99.8203" id="Container" style="stroke: #A80036; stroke-width: 1.5;" width="149" x="442" y="394"/><ellipse cx="484.9" cy="410" fill="#ADD1B2" rx="11" ry="11" style="stroke: #A80036; stroke-width: 1.0;"/><path d="M487.3731,416.1431 Q486.7921,416.4419 486.1529,416.5913 Q485.5138,416.7407 484.8082,416.7407 Q482.3014,416.7407 480.9815,415.0889 Q479.6617,413.437 479.6617,410.3159 Q479.6617,407.1865 480.9815,405.5347 Q482.3014,403.8828 484.8082,403.8828 Q485.5138,403.8828 486.1612,404.0322 Q486.8087,404.1816 487.3731,404.4805 L487.3731,407.2031 Q486.7423,406.6221 486.1488,406.3523 Q485.5553,406.0825 484.9244,406.0825 Q483.5797,406.0825 482.8949,407.1492 Q482.2101,408.2158 482.2101,410.3159 Q482.2101,412.4077 482.8949,413.4744 Q483.5797,414.541 484.9244,414.541 Q485.5553,414.541 486.1488,414.2712 Q486.7423,414.0015 487.3731,413.4204 Z "/><text fill="#000000" font-family="sans-serif" font-size="12" lengthAdjust="spacingAndGlyphs" textLength="55" x="505.1" y="414.5352">Container</text><line style="stroke: #A80036; stroke-width: 1.5;" x1="443" x2="590" y1="426" y2="426"/><text fill="#000000" font-family="sans-serif" font-size="11" lengthAdjust="spacingAndGlyphs" textLength="70" x="448" y="440.6348">image_name:</text><text fill="#808080" font-family="sans-serif" font-size="11" lengthAdjust="spacingAndGlyphs" textLength="32" x="521" y="440.6348">String</text><text fill="#000000" font-family="sans-serif" font-size="11" lengthAdjust="spacingAndGlyphs" textLength="102" x="448" y="453.5898">container_registry:</text><text fill="#808080" font-family="sans-serif" font-size="11" lengthAdjust="spacingAndGlyphs" textLength="32" x="553" y="453.5898">String</text><text fill="#000000" font-family="sans-serif" font-size="11" lengthAdjust="spacingAndGlyphs" textLength="58" x="448" y="466.5449">image_tag:</text><text fill="#808080" font-family="sans-serif" font-size="11" lengthAdjust="spacingAndGlyphs" textLength="32" x="509" y="466.5449">String</text><line style="stroke: #A80036; stroke-width: 1.5;" x1="443" x2="590" y1="472.8652" y2="472.8652"/><text fill="#000000" font-family="sans-serif" font-size="11" lengthAdjust="spacingAndGlyphs" textLength="43" x="448" y="487.5">image():</text><text fill="#808080" font-family="sans-serif" font-size="11" lengthAdjust="spacingAndGlyphs" textLength="32" x="494" y="487.5">String</text><!--class DeploymentComponent--><rect fill="#FEFECE" filter="url(#fy3ps5yuxk83)" height="73.9102" id="DeploymentComponent" style="stroke: #A80036; stroke-width: 1.5;" width="167" x="805" y="246"/><ellipse cx="820" cy="262" fill="#ADD1B2" rx="11" ry="11" style="stroke: #A80036; stroke-width: 1.0;"/><path d="M822.4731,268.1431 Q821.8921,268.4419 821.2529,268.5913 Q820.6138,268.7407 819.9082,268.7407 Q817.4014,268.7407 816.0815,267.0889 Q814.7617,265.437 814.7617,262.3159 Q814.7617,259.1865 816.0815,257.5347 Q817.4014,255.8828 819.9082,255.8828 Q820.6138,255.8828 821.2612,256.0322 Q821.9087,256.1816 822.4731,256.4805 L822.4731,259.2031 Q821.8423,258.6221 821.2488,258.3523 Q820.6553,258.0825 820.0244,258.0825 Q818.6797,258.0825 817.9949,259.1492 Q817.3101,260.2158 817.3101,262.3159 Q817.3101,264.4077 817.9949,265.4744 Q818.6797,266.541 820.0244,266.541 Q820.6553,266.541 821.2488,266.2712 Q821.8423,266.0015 822.4731,265.4204 Z "/><text fill="#000000" font-family="sans-serif" font-size="12" lengthAdjust="spacingAndGlyphs" textLength="135" x="834" y="266.5352">DeploymentComponent</text><line style="stroke: #A80036; stroke-width: 1.5;" x1="806" x2="971" y1="278" y2="278"/><path d="M817.0417,284.8717 C815.7767,284.8717 814.75,285.8984 814.75,287.1634 C814.75,287.3101 814.7803,287.4357 814.8078,287.5649 L812,290.3727 L812,292.206 L814.75,292.206 L814.75,290.3727 L816.5833,290.3727 L816.5833,289.456 L816.6411,289.3982 C816.7694,289.4257 816.895,289.456 817.0426,289.456 C818.3076,289.456 819.3343,288.4293 819.3343,287.1643 C819.3343,285.8993 818.3076,284.8727 817.0426,284.8727 M817.5009,285.7893 C818.0051,285.7893 818.4176,286.2018 818.4176,286.706 C818.4176,287.2102 818.0051,287.6227 817.5009,287.6227 C816.9968,287.6227 816.5843,287.2102 816.5843,286.706 C816.5843,286.2018 816.9968,285.7893 817.5009,285.7893 " fill="#FF0000" style="stroke: ; stroke-width: 0.0; stroke-dasharray: ;"/><path d="M825,284.8717 L824.0833,287.6217 L821.3333,287.6217 L823.625,289.4551 L822.7083,292.2051 L825,290.3717 L827.2917,292.2051 L826.375,289.4551 L828.6667,287.6217 L825.9167,287.6217 L825,284.8717 " fill="#008000" style="stroke: ; stroke-width: 0.0; stroke-dasharray: ;"/><text fill="#000000" font-family="sans-serif" font-size="11" lengthAdjust="spacingAndGlyphs" textLength="32" x="829.6667" y="292.6348">name:</text><text fill="#808080" font-family="sans-serif" font-size="11" lengthAdjust="spacingAndGlyphs" textLength="32" x="864.6667" y="292.6348">String</text><path d="M815.6667,297.8268 L814.75,300.5768 L812,300.5768 L814.2917,302.4102 L813.375,305.1602 L815.6667,303.3268 L817.9583,305.1602 L817.0417,302.4102 L819.3333,300.5768 L816.5833,300.5768 L815.6667,297.8268 " fill="#008000" style="stroke: ; stroke-width: 0.0; stroke-dasharray: ;"/><path d="M821.3333,297.8268 L821.3333,305.1602 L822.25,305.1602 L822.25,297.8268 L821.3333,297.8268 M823.1667,297.8268 L823.1667,301.4935 L825,301.4935 L825,302.4102 L828.6667,302.4102 L826.8333,300.6052 L828.6667,298.7435 L825.9167,298.7435 L825.9167,297.8268 L823.1667,297.8268 " fill="#008000" style="stroke: ; stroke-width: 0.0; stroke-dasharray: ;"/><text fill="#000000" font-family="sans-serif" font-size="11" lengthAdjust="spacingAndGlyphs" textLength="26" x="829.6667" y="305.5898">type:</text><text fill="#808080" font-family="sans-serif" font-size="11" lengthAdjust="spacingAndGlyphs" textLength="32" x="858.6667" y="305.5898">String</text><line style="stroke: #A80036; stroke-width: 1.5;" x1="806" x2="971" y1="311.9102" y2="311.9102"/><!--class ClientComponent--><rect fill="#FEFECE" filter="url(#fy3ps5yuxk83)" height="48" id="ClientComponent" style="stroke: #A80036; stroke-width: 1.5;" width="130" x="34.5" y="295"/><ellipse cx="49.5" cy="311" fill="#ADD1B2" rx="11" ry="11" style="stroke: #A80036; stroke-width: 1.0;"/><path d="M51.9731,317.1431 Q51.3921,317.4419 50.7529,317.5913 Q50.1138,317.7407 49.4082,317.7407 Q46.9014,317.7407 45.5815,316.0889 Q44.2617,314.437 44.2617,311.3159 Q44.2617,308.1865 45.5815,306.5347 Q46.9014,304.8828 49.4082,304.8828 Q50.1138,304.8828 50.7612,305.0322 Q51.4087,305.1816 51.9731,305.4805 L51.9731,308.2031 Q51.3423,307.6221 50.7488,307.3523 Q50.1553,307.0825 49.5244,307.0825 Q48.1797,307.0825 47.4949,308.1492 Q46.8101,309.2158 46.8101,311.3159 Q46.8101,313.4077 47.4949,314.4744 Q48.1797,315.541 49.5244,315.541 Q50.1553,315.541 50.7488,315.2712 Q51.3423,315.0015 51.9731,314.4204 Z "/><text fill="#000000" font-family="sans-serif" font-size="12" lengthAdjust="spacingAndGlyphs" textLength="98" x="63.5" y="315.5352">ClientComponent</text><line style="stroke: #A80036; stroke-width: 1.5;" x1="35.5" x2="163.5" y1="327" y2="327"/><line style="stroke: #A80036; stroke-width: 1.5;" x1="35.5" x2="163.5" y1="335" y2="335"/><!--class DbMigrationJobComponent--><rect fill="#FEFECE" filter="url(#fy3ps5yuxk83)" height="48" id="DbMigrationJobComponent" style="stroke: #A80036; stroke-width: 1.5;" width="187" x="6" y="478"/><ellipse cx="21" cy="494" fill="#ADD1B2" rx="11" ry="11" style="stroke: #A80036; stroke-width: 1.0;"/><path d="M23.4731,500.1431 Q22.8921,500.4419 22.2529,500.5913 Q21.6138,500.7407 20.9082,500.7407 Q18.4014,500.7407 17.0815,499.0889 Q15.7617,497.437 15.7617,494.3159 Q15.7617,491.1865 17.0815,489.5347 Q18.4014,487.8828 20.9082,487.8828 Q21.6138,487.8828 22.2612,488.0322 Q22.9087,488.1816 23.4731,488.4805 L23.4731,491.2031 Q22.8423,490.6221 22.2488,490.3523 Q21.6553,490.0825 21.0244,490.0825 Q19.6797,490.0825 18.9949,491.1492 Q18.3101,492.2158 18.3101,494.3159 Q18.3101,496.4077 18.9949,497.4744 Q19.6797,498.541 21.0244,498.541 Q21.6553,498.541 22.2488,498.2712 Q22.8423,498.0015 23.4731,497.4204 Z "/><text fill="#000000" font-family="sans-serif" font-size="12" lengthAdjust="spacingAndGlyphs" textLength="155" x="35" y="498.5352">DbMigrationJobComponent</text><line style="stroke: #A80036; stroke-width: 1.5;" x1="7" x2="192" y1="510" y2="510"/><line style="stroke: #A80036; stroke-width: 1.5;" x1="7" x2="192" y1="518" y2="518"/><!--class DatastoreComponent--><rect fill="#FEFECE" filter="url(#fy3ps5yuxk83)" height="48" id="DatastoreComponent" style="stroke: #A80036; stroke-width: 1.5;" width="154" x="22.5" y="567"/><ellipse cx="37.5" cy="583" fill="#ADD1B2" rx="11" ry="11" style="stroke: #A80036; stroke-width: 1.0;"/><path d="M39.9731,589.1431 Q39.3921,589.4419 38.7529,589.5913 Q38.1138,589.7407 37.4082,589.7407 Q34.9014,589.7407 33.5815,588.0889 Q32.2617,586.437 32.2617,583.3159 Q32.2617,580.1865 33.5815,578.5347 Q34.9014,576.8828 37.4082,576.8828 Q38.1138,576.8828 38.7612,577.0322 Q39.4087,577.1816 39.9731,577.4805 L39.9731,580.2031 Q39.3423,579.6221 38.7488,579.3523 Q38.1553,579.0825 37.5244,579.0825 Q36.1797,579.0825 35.4949,580.1492 Q34.8101,581.2158 34.8101,583.3159 Q34.8101,585.4077 35.4949,586.4744 Q36.1797,587.541 37.5244,587.541 Q38.1553,587.541 38.7488,587.2712 Q39.3423,587.0015 39.9731,586.4204 Z "/><text fill="#000000" font-family="sans-serif" font-size="12" lengthAdjust="spacingAndGlyphs" textLength="122" x="51.5" y="587.5352">DatastoreComponent</text><line style="stroke: #A80036; stroke-width: 1.5;" x1="23.5" x2="175.5" y1="599" y2="599"/><line style="stroke: #A80036; stroke-width: 1.5;" x1="23.5" x2="175.5" y1="607" y2="607"/><!--class GkeCluster--><rect fill="#FEFECE" filter="url(#fy3ps5yuxk83)" height="60.9551" id="GkeCluster" style="stroke: #A80036; stroke-width: 1.5;" width="139.3333" x="30" y="187.5"/><ellipse cx="64.95" cy="203.5" fill="#ADD1B2" rx="11" ry="11" style="stroke: #A80036; stroke-width: 1.0;"/><path d="M67.4231,209.6431 Q66.8421,209.9419 66.2029,210.0913 Q65.5638,210.2407 64.8582,210.2407 Q62.3514,210.2407 61.0315,208.5889 Q59.7117,206.937 59.7117,203.8159 Q59.7117,200.6865 61.0315,199.0347 Q62.3514,197.3828 64.8582,197.3828 Q65.5638,197.3828 66.2112,197.5322 Q66.8587,197.6816 67.4231,197.9805 L67.4231,200.7031 Q66.7923,200.1221 66.1988,199.8523 Q65.6053,199.5825 64.9744,199.5825 Q63.6297,199.5825 62.9449,200.6492 Q62.2601,201.7158 62.2601,203.8159 Q62.2601,205.9077 62.9449,206.9744 Q63.6297,208.041 64.9744,208.041 Q65.6053,208.041 66.1988,207.7712 Q66.7923,207.5015 67.4231,206.9204 Z "/><text fill="#000000" font-family="sans-serif" font-size="12" lengthAdjust="spacingAndGlyphs" textLength="63" x="83.3833" y="208.0352">GkeCluster</text><line style="stroke: #A80036; stroke-width: 1.5;" x1="31" x2="168.3333" y1="219.5" y2="219.5"/><path d="M40.6667,226.3717 L39.75,229.1217 L37,229.1217 L39.2917,230.9551 L38.375,233.7051 L40.6667,231.8717 L42.9583,233.7051 L42.0417,230.9551 L44.3333,229.1217 L41.5833,229.1217 L40.6667,226.3717 " fill="#008000" style="stroke: ; stroke-width: 0.0; stroke-dasharray: ;"/><text fill="#000000" font-family="sans-serif" font-size="11" lengthAdjust="spacingAndGlyphs" textLength="101" x="45.3333" y="234.1348">number_of_nodes:</text><text fill="#808080" font-family="sans-serif" font-size="11" lengthAdjust="spacingAndGlyphs" textLength="14" x="149.3333" y="234.1348">Int</text><line style="stroke: #A80036; stroke-width: 1.5;" x1="31" x2="168.3333" y1="240.4551" y2="240.4551"/><!--class D4dLocalCluster--><rect fill="#FEFECE" filter="url(#fy3ps5yuxk83)" height="48" id="D4dLocalCluster" style="stroke: #A80036; stroke-width: 1.5;" width="126" x="36.5" y="8"/><ellipse cx="51.5" cy="24" fill="#ADD1B2" rx="11" ry="11" style="stroke: #A80036; stroke-width: 1.0;"/><path d="M53.9731,30.1431 Q53.3921,30.4419 52.7529,30.5913 Q52.1138,30.7407 51.4082,30.7407 Q48.9014,30.7407 47.5815,29.0889 Q46.2617,27.437 46.2617,24.3159 Q46.2617,21.1865 47.5815,19.5347 Q48.9014,17.8828 51.4082,17.8828 Q52.1138,17.8828 52.7612,18.0322 Q53.4087,18.1816 53.9731,18.4805 L53.9731,21.2031 Q53.3423,20.6221 52.7488,20.3523 Q52.1553,20.0825 51.5244,20.0825 Q50.1797,20.0825 49.4949,21.1492 Q48.8101,22.2158 48.8101,24.3159 Q48.8101,26.4077 49.4949,27.4744 Q50.1797,28.541 51.5244,28.541 Q52.1553,28.541 52.7488,28.2712 Q53.3423,28.0015 53.9731,27.4204 Z "/><text fill="#000000" font-family="sans-serif" font-size="12" lengthAdjust="spacingAndGlyphs" textLength="94" x="65.5" y="28.5352">D4dLocalCluster</text><line style="stroke: #A80036; stroke-width: 1.5;" x1="37.5" x2="161.5" y1="40" y2="40"/><line style="stroke: #A80036; stroke-width: 1.5;" x1="37.5" x2="161.5" y1="48" y2="48"/><!--link DeploymentEnvironment to DeploymentNode--><path d="M198.8717,122 C249.2998,122 311.5871,122 367.6069,122 " fill="none" id="DeploymentEnvironment-DeploymentNode" style="stroke: #A80036; stroke-width: 1.0;"/><polygon fill="#A80036" points="185.6497,122,191.6497,126,197.6497,122,191.6497,118,185.6497,122" style="stroke: #A80036; stroke-width: 1.0;"/><text fill="#000000" font-family="sans-serif" font-size="13" lengthAdjust="spacingAndGlyphs" textLength="38" x="261.5" y="118.5684">nodes</text><text fill="#000000" font-family="sans-serif" font-size="13" lengthAdjust="spacingAndGlyphs" textLength="22" x="337.8621" y="134.9457">1..*</text><!--link ServiceComponent to Container--><path d="M168.8272,420.6551 C237.8797,425.2917 344.4135,432.445 421.3563,437.6115 " fill="none" id="ServiceComponent-Container" style="stroke: #A80036; stroke-width: 1.0;"/><polygon fill="none" points="422.2357,430.6546,441.7217,438.9789,421.2977,444.6232,422.2357,430.6546" style="stroke: #A80036; stroke-width: 1.0;"/><!--link ServiceComponent to Service--><path d="M168.8272,402.5336 C258.4537,385.1241 411.2237,355.4493 480.4763,341.9974 " fill="none" id="ServiceComponent-Service" style="stroke: #A80036; stroke-width: 1.0;"/><text fill="#000000" font-family="sans-serif" font-size="13" lengthAdjust="spacingAndGlyphs" textLength="29" x="266" y="366.5684">spec</text><text fill="#000000" font-family="sans-serif" font-size="13" lengthAdjust="spacingAndGlyphs" textLength="8" x="464.5966" y="357.4505">1</text><!--link Container to DeploymentComponent--><path d="M591.3323,411.6129 C647.285,387.3968 724.4374,354.0056 786.1062,327.3156 " fill="none" id="Container-DeploymentComponent" style="stroke: #A80036; stroke-width: 1.0;"/><polygon fill="none" points="783.572,320.785,804.7071,319.2652,789.1328,333.6333,783.572,320.785" style="stroke: #A80036; stroke-width: 1.0;"/><!--link ClientComponent to Container--><path d="M159.0452,343.0932 C179.1944,350.8616 201.9285,359.2108 223,366 C288.7643,387.1893 364.1099,407.1246 421.9937,421.5371 " fill="none" id="ClientComponent-Container" style="stroke: #A80036; stroke-width: 1.0;"/><polygon fill="none" points="423.9542,414.8108,441.6953,426.3976,420.6008,428.4033,423.9542,414.8108" style="stroke: #A80036; stroke-width: 1.0;"/><!--link ClientComponent to Client--><path d="M164.6563,307.2812 C255.366,290.9666 416.234,262.0335 484.4711,249.7606 " fill="none" id="ClientComponent-Client" style="stroke: #A80036; stroke-width: 1.0;"/><text fill="#000000" font-family="sans-serif" font-size="13" lengthAdjust="spacingAndGlyphs" textLength="29" x="266" y="273.5684">spec</text><text fill="#000000" font-family="sans-serif" font-size="13" lengthAdjust="spacingAndGlyphs" textLength="8" x="468.5898" y="265.2637">1</text><!--link DbMigrationJobComponent to Container--><path d="M193.0829,488.9837 C261.3435,479.4894 353.5021,466.6712 421.9801,457.1467 " fill="none" id="DbMigrationJobComponent-Container" style="stroke: #A80036; stroke-width: 1.0;"/><polygon fill="none" points="421.1958,450.1884,441.9694,454.3664,423.1245,464.055,421.1958,450.1884" style="stroke: #A80036; stroke-width: 1.0;"/><!--link DbMigrationJobComponent to Datasource--><path d="M193.0829,519.7291 C278.3283,535.8787 400.8442,559.0892 467.9654,571.8052 " fill="none" id="DbMigrationJobComponent-Datasource" style="stroke: #A80036; stroke-width: 1.0;"/><text fill="#000000" font-family="sans-serif" font-size="13" lengthAdjust="spacingAndGlyphs" textLength="113" x="224" y="523.5684">target_datasource</text><text fill="#000000" font-family="sans-serif" font-size="13" lengthAdjust="spacingAndGlyphs" textLength="8" x="451.921" y="584.1378">1</text><!--link DeploymentNode to DeploymentComponent--><path d="M674.1629,190.2358 C719.0548,209.6649 766.2019,230.0699 804.8111,246.7798 " fill="none" id="DeploymentNode-DeploymentComponent" style="stroke: #A80036; stroke-width: 1.0;"/><polygon fill="#A80036" points="662.1898,185.0539,666.1075,191.108,673.2027,189.8201,669.285,183.7661,662.1898,185.0539" style="stroke: #A80036; stroke-width: 1.0;"/><text fill="#000000" font-family="sans-serif" font-size="13" lengthAdjust="spacingAndGlyphs" textLength="78" x="696" y="198.5684">components</text><text fill="#000000" font-family="sans-serif" font-size="13" lengthAdjust="spacingAndGlyphs" textLength="6" x="791.0904" y="256.8081">*</text><!--link DatastoreComponent to Container--><path d="M146.6009,566.9173 C169.3481,555.796 197.2389,542.8954 223,533 C288.5031,507.8389 364.3436,484.9979 422.5204,468.7559 " fill="none" id="DatastoreComponent-Container" style="stroke: #A80036; stroke-width: 1.0;"/><polygon fill="none" points="420.7819,461.974,441.9235,463.4001,424.507,475.4694,420.7819,461.974" style="stroke: #A80036; stroke-width: 1.0;"/><!--link DatastoreComponent to Datasource--><path d="M176.6772,605.4508 C191.9736,607.7622 207.953,609.7895 223,611 C273.9465,615.0985 287.0659,615.2504 338,611 C382.3112,607.3023 432.1723,598.5268 467.9102,591.4166 " fill="none" id="DatastoreComponent-Datasource" style="stroke: #A80036; stroke-width: 1.0;"/><text fill="#000000" font-family="sans-serif" font-size="13" lengthAdjust="spacingAndGlyphs" textLength="29" x="266" y="607.5684">spec</text><text fill="#000000" font-family="sans-serif" font-size="13" lengthAdjust="spacingAndGlyphs" textLength="8" x="451.8574" y="606.7522">1</text><!--link GkeCluster to DeploymentNode--><path d="M169.2964,201.9318 C218.1485,190.6852 285.5929,175.1585 348.054,160.7789 " fill="none" id="GkeCluster-DeploymentNode" style="stroke: #A80036; stroke-width: 1.0;"/><polygon fill="none" points="346.629,153.924,367.6896,156.2585,349.7699,167.5671,346.629,153.924" style="stroke: #A80036; stroke-width: 1.0;"/><!--link D4dLocalCluster to DeploymentNode--><path d="M162.8333,45.6691 C212.0816,56.2982 282.7813,71.5571 348.0424,85.6422 " fill="none" id="D4dLocalCluster-DeploymentNode" style="stroke: #A80036; stroke-width: 1.0;"/><polygon fill="none" points="349.5638,78.8093,367.6368,89.8713,346.6101,92.4942,349.5638,78.8093" style="stroke: #A80036; stroke-width: 1.0;"/><!--
@startuml
left to right direction

class DeploymentEnvironment {
  <color:RED><&key></color><color:Green><&star></color>name: <color:GRAY>String</color>
}






DeploymentEnvironment *- - "1..*" DeploymentNode : nodes



class ServiceComponent {
}

ServiceComponent - -|> Container






package laplacian_arch.service_api_arch {
  class Service {
  }
}


ServiceComponent - - "1" Service : spec



class Container {
  image_name: <color:GRAY>String</color>
  container_registry: <color:GRAY>String</color>
  image_tag: <color:GRAY>String</color>
  image(): <color:GRAY>String</color>
}

Container - -|> DeploymentComponent




class ClientComponent {
}

ClientComponent - -|> Container






package laplacian_arch.client_app_arch {
  class Client {
  }
}


ClientComponent - - "1" Client : spec



class DbMigrationJobComponent {
}

DbMigrationJobComponent - -|> Container






package laplacian_arch.datasource {
  class Datasource {
  }
}


DbMigrationJobComponent - - "1" Datasource : target_datasource



class DeploymentNode {
  <color:RED><&key></color><color:Green><&star></color>name: <color:GRAY>String</color>
  <color:Green><&star></color><color:GREEN><&flag></color>type: <color:GRAY>String</color>
  dbMigrationJobs(): <color:GRAY>List<DbMigrationJobComponent></color>
  clients(): <color:GRAY>List<ClientComponent></color>
  services(): <color:GRAY>List<ServiceComponent></color>
  datastores(): <color:GRAY>List<DatastoreComponent></color>
}






DeploymentNode *- - "*" DeploymentComponent : components



class DatastoreComponent {
}

DatastoreComponent - -|> Container






package laplacian_arch.datasource {
  class Datasource {
  }
}


DatastoreComponent - - "1" Datasource : spec



class DeploymentComponent {
  <color:RED><&key></color><color:Green><&star></color>name: <color:GRAY>String</color>
  <color:Green><&star></color><color:GREEN><&flag></color>type: <color:GRAY>String</color>
}



class GkeCluster {
  <color:Green><&star></color>number_of_nodes: <color:GRAY>Int</color>
}

GkeCluster - -|> DeploymentNode




class D4dLocalCluster {
}

D4dLocalCluster - -|> DeploymentNode




@enduml

PlantUML version 1.2019.05(Sun Apr 21 01:45:36 JST 2019)
(GPL source distribution)
Java Runtime: OpenJDK Runtime Environment
JVM: OpenJDK 64-Bit Server VM
Java Version: 1.8.0_172-b01
Operating System: Mac OS X
OS Version: 10.14.4
Default Encoding: UTF-8
Language: en
Country: JP
--></g></svg>