<?xml version="1.0" encoding="UTF-8" standalone="no"?><svg xmlns="http://www.w3.org/2000/svg" xmlns:xlink="http://www.w3.org/1999/xlink" contentScriptType="application/ecmascript" contentStyleType="text/css" height="579px" preserveAspectRatio="none" style="width:1015px;height:579px;" version="1.1" viewBox="0 0 1015 579" width="1015px" zoomAndPan="magnify"><defs><filter height="300%" id="f1ko43vppgwwxh" width="300%" x="-1" y="-1"><feGaussianBlur result="blurOut" stdDeviation="2.0"/><feColorMatrix in="blurOut" result="blurOut2" type="matrix" values="0 0 0 0 0 0 0 0 0 0 0 0 0 0 0 0 0 0 .4 0"/><feOffset dx="4.0" dy="4.0" in="blurOut2" result="blurOut3"/><feBlend in="SourceGraphic" in2="blurOut3" mode="normal"/></filter></defs><g><!--cluster laplacian.arch.api.service--><polygon fill="#FFFFFF" filter="url(#f1ko43vppgwwxh)" points="470,370,651,370,658,392.4883,661,392.4883,661,469,470,469,470,370" style="stroke: #000000; stroke-width: 1.5;"/><line style="stroke: #000000; stroke-width: 1.5;" x1="470" x2="658" y1="392.4883" y2="392.4883"/><text fill="#000000" font-family="sans-serif" font-size="14" font-weight="bold" lengthAdjust="spacingAndGlyphs" textLength="175" x="474" y="385.5352">laplacian.arch.api.service</text><!--class Service--><rect fill="#FEFECE" filter="url(#f1ko43vppgwwxh)" height="48" id="Service" style="stroke: #A80036; stroke-width: 1.5;" width="72" x="529" y="405"/><ellipse cx="544" cy="421" fill="#ADD1B2" rx="11" ry="11" style="stroke: #A80036; stroke-width: 1.0;"/><path d="M546.4731,427.1431 Q545.8921,427.4419 545.2529,427.5913 Q544.6138,427.7407 543.9082,427.7407 Q541.4014,427.7407 540.0815,426.0889 Q538.7617,424.437 538.7617,421.3159 Q538.7617,418.1865 540.0815,416.5347 Q541.4014,414.8828 543.9082,414.8828 Q544.6138,414.8828 545.2612,415.0322 Q545.9087,415.1816 546.4731,415.4805 L546.4731,418.2031 Q545.8423,417.6221 545.2488,417.3523 Q544.6553,417.0825 544.0244,417.0825 Q542.6797,417.0825 541.9949,418.1492 Q541.3101,419.2158 541.3101,421.3159 Q541.3101,423.4077 541.9949,424.4744 Q542.6797,425.541 544.0244,425.541 Q544.6553,425.541 545.2488,425.2712 Q545.8423,425.0015 546.4731,424.4204 Z "/><text fill="#000000" font-family="sans-serif" font-size="12" lengthAdjust="spacingAndGlyphs" textLength="40" x="558" y="425.5352">Service</text><line style="stroke: #A80036; stroke-width: 1.5;" x1="530" x2="600" y1="437" y2="437"/><line style="stroke: #A80036; stroke-width: 1.5;" x1="530" x2="600" y1="445" y2="445"/><!--class Component--><a href="/blob/master/doc/entities/Component.md" target="_top" xlink:actuate="onRequest" xlink:show="new" xlink:title="/blob/master/doc/entities/Component.md" xlink:type="simple"><rect fill="#FEFECE" filter="url(#f1ko43vppgwwxh)" height="112.7754" id="Component" style="stroke: #A80036; stroke-width: 1.5;" width="202" x="802" y="170.5"/><ellipse cx="865.75" cy="186.5" fill="#ADD1B2" rx="11" ry="11" style="stroke: #A80036; stroke-width: 1.0;"/><path d="M868.2231,192.6431 Q867.6421,192.9419 867.0029,193.0913 Q866.3638,193.2407 865.6582,193.2407 Q863.1514,193.2407 861.8315,191.5889 Q860.5117,189.937 860.5117,186.8159 Q860.5117,183.6865 861.8315,182.0347 Q863.1514,180.3828 865.6582,180.3828 Q866.3638,180.3828 867.0112,180.5322 Q867.6587,180.6816 868.2231,180.9805 L868.2231,183.7031 Q867.5923,183.1221 866.9988,182.8523 Q866.4053,182.5825 865.7744,182.5825 Q864.4297,182.5825 863.7449,183.6492 Q863.0601,184.7158 863.0601,186.8159 Q863.0601,188.9077 863.7449,189.9744 Q864.4297,191.041 865.7744,191.041 Q866.4053,191.041 866.9988,190.7712 Q867.5923,190.5015 868.2231,189.9204 Z "/><text fill="#000000" font-family="sans-serif" font-size="12" lengthAdjust="spacingAndGlyphs" textLength="66" x="886.25" y="191.0352">Component</text><line style="stroke: #A80036; stroke-width: 1.5;" x1="803" x2="1003" y1="202.5" y2="202.5"/><path d="M814.0417,209.3717 C812.7767,209.3717 811.75,210.3984 811.75,211.6634 C811.75,211.8101 811.7803,211.9357 811.8078,212.0649 L809,214.8727 L809,216.706 L811.75,216.706 L811.75,214.8727 L813.5833,214.8727 L813.5833,213.956 L813.6411,213.8982 C813.7694,213.9257 813.895,213.956 814.0426,213.956 C815.3076,213.956 816.3343,212.9293 816.3343,211.6643 C816.3343,210.3993 815.3076,209.3727 814.0426,209.3727 M814.5009,210.2893 C815.0051,210.2893 815.4176,210.7018 815.4176,211.206 C815.4176,211.7102 815.0051,212.1227 814.5009,212.1227 C813.9968,212.1227 813.5843,211.7102 813.5843,211.206 C813.5843,210.7018 813.9968,210.2893 814.5009,210.2893 " fill="#FF0000" style="stroke: ; stroke-width: 0.0; stroke-dasharray: ;"/><path d="M822,209.3717 L821.0833,212.1217 L818.3333,212.1217 L820.625,213.9551 L819.7083,216.7051 L822,214.8717 L824.2917,216.7051 L823.375,213.9551 L825.6667,212.1217 L822.9167,212.1217 L822,209.3717 " fill="#008000" style="stroke: ; stroke-width: 0.0; stroke-dasharray: ;"/></a><a href="/blob/master/doc/entities/Component.md#name-string" target="_top" xlink:actuate="onRequest" xlink:show="new" xlink:title="/blob/master/doc/entities/Component.md#name-string" xlink:type="simple"><text fill="#0000FF" font-family="sans-serif" font-size="11" lengthAdjust="spacingAndGlyphs" text-decoration="underline" textLength="29" x="826.6667" y="217.1348">name</text></a><text fill="#000000" font-family="sans-serif" font-size="11" lengthAdjust="spacingAndGlyphs" textLength="3" x="855.6667" y="217.1348">:</text><text fill="#808080" font-family="sans-serif" font-size="11" lengthAdjust="spacingAndGlyphs" textLength="32" x="861.6667" y="217.1348">String</text><path d="M809,222.3268 L809,229.6602 L809.9167,229.6602 L809.9167,222.3268 L809,222.3268 M810.8333,222.3268 L810.8333,225.9935 L812.6667,225.9935 L812.6667,226.9102 L816.3333,226.9102 L814.5,225.1052 L816.3333,223.2435 L813.5833,223.2435 L813.5833,222.3268 L810.8333,222.3268 " fill="#FF0000" style="stroke: ; stroke-width: 0.0; stroke-dasharray: ;"/><path d="M822,222.3268 L821.0833,225.0768 L818.3333,225.0768 L820.625,226.9102 L819.7083,229.6602 L822,227.8268 L824.2917,229.6602 L823.375,226.9102 L825.6667,225.0768 L822.9167,225.0768 L822,222.3268 " fill="#008000" style="stroke: ; stroke-width: 0.0; stroke-dasharray: ;"/><a href="/blob/master/doc/entities/Component.md#type-string" target="_top" xlink:actuate="onRequest" xlink:show="new" xlink:title="/blob/master/doc/entities/Component.md#type-string" xlink:type="simple"><text fill="#0000FF" font-family="sans-serif" font-size="11" lengthAdjust="spacingAndGlyphs" text-decoration="underline" textLength="23" x="826.6667" y="230.0898">type</text></a><text fill="#000000" font-family="sans-serif" font-size="11" lengthAdjust="spacingAndGlyphs" textLength="3" x="849.6667" y="230.0898">:</text><text fill="#808080" font-family="sans-serif" font-size="11" lengthAdjust="spacingAndGlyphs" textLength="32" x="855.6667" y="230.0898">String</text><path d="M812.6667,235.2819 L811.75,238.0319 L809,238.0319 L811.2917,239.8652 L810.375,242.6152 L812.6667,240.7819 L814.9583,242.6152 L814.0417,239.8652 L816.3333,238.0319 L813.5833,238.0319 L812.6667,235.2819 " fill="#008000" style="stroke: ; stroke-width: 0.0; stroke-dasharray: ;"/><a href="/blob/master/doc/entities/Component.md#tags-listString" target="_top" xlink:actuate="onRequest" xlink:show="new" xlink:title="/blob/master/doc/entities/Component.md#tags-listString" xlink:type="simple"><text fill="#0000FF" font-family="sans-serif" font-size="11" lengthAdjust="spacingAndGlyphs" text-decoration="underline" textLength="23" x="817.3333" y="243.0449">tags</text></a><text fill="#000000" font-family="sans-serif" font-size="11" lengthAdjust="spacingAndGlyphs" textLength="3" x="840.3333" y="243.0449">:</text><text fill="#808080" font-family="sans-serif" font-size="11" lengthAdjust="spacingAndGlyphs" textLength="69" x="846.3333" y="243.0449">List&lt;String&gt;</text><a href="/blob/master/doc/entities/Component.md#instance_name-string" target="_top" xlink:actuate="onRequest" xlink:show="new" xlink:title="/blob/master/doc/entities/Component.md#instance_name-string" xlink:type="simple"><text fill="#0000FF" font-family="sans-serif" font-size="11" lengthAdjust="spacingAndGlyphs" text-decoration="underline" textLength="80" x="808" y="256">instance_name</text></a><text fill="#000000" font-family="sans-serif" font-size="11" lengthAdjust="spacingAndGlyphs" textLength="3" x="888" y="256">:</text><text fill="#808080" font-family="sans-serif" font-size="11" lengthAdjust="spacingAndGlyphs" textLength="32" x="894" y="256">String</text><line style="stroke: #A80036; stroke-width: 1.5;" x1="803" x2="1003" y1="262.3203" y2="262.3203"/><a href="/blob/master/doc/entities/Component.md#current_environment-environment" target="_top" xlink:actuate="onRequest" xlink:show="new" xlink:title="/blob/master/doc/entities/Component.md#current_environment-environment" xlink:type="simple"><text fill="#0000FF" font-family="sans-serif" font-size="11" lengthAdjust="spacingAndGlyphs" text-decoration="underline" textLength="108" x="808" y="276.9551">currentEnvironment</text></a><text fill="#000000" font-family="sans-serif" font-size="11" lengthAdjust="spacingAndGlyphs" textLength="11" x="916" y="276.9551">():</text><text fill="#808080" font-family="sans-serif" font-size="11" lengthAdjust="spacingAndGlyphs" textLength="68" x="930" y="276.9551">Environment</text><!--class PostgresTestDb--><a href="/blob/master/doc/entities/PostgresTestDb.md" target="_top" xlink:actuate="onRequest" xlink:show="new" xlink:title="/blob/master/doc/entities/PostgresTestDb.md" xlink:type="simple"><rect fill="#FEFECE" filter="url(#f1ko43vppgwwxh)" height="138.6855" id="PostgresTestDb" style="stroke: #A80036; stroke-width: 1.5;" width="184" x="473" y="8.5"/><ellipse cx="515.45" cy="24.5" fill="#ADD1B2" rx="11" ry="11" style="stroke: #A80036; stroke-width: 1.0;"/><path d="M517.9231,30.6431 Q517.3421,30.9419 516.7029,31.0913 Q516.0638,31.2407 515.3582,31.2407 Q512.8514,31.2407 511.5315,29.5889 Q510.2117,27.937 510.2117,24.8159 Q510.2117,21.6865 511.5315,20.0347 Q512.8514,18.3828 515.3582,18.3828 Q516.0638,18.3828 516.7112,18.5322 Q517.3587,18.6816 517.9231,18.9805 L517.9231,21.7031 Q517.2923,21.1221 516.6988,20.8523 Q516.1053,20.5825 515.4744,20.5825 Q514.1297,20.5825 513.4449,21.6492 Q512.7601,22.7158 512.7601,24.8159 Q512.7601,26.9077 513.4449,27.9744 Q514.1297,29.041 515.4744,29.041 Q516.1053,29.041 516.6988,28.7712 Q517.2923,28.5015 517.9231,27.9204 Z "/><text fill="#000000" font-family="sans-serif" font-size="12" lengthAdjust="spacingAndGlyphs" textLength="91" x="535.55" y="29.0352">PostgresTestDb</text><line style="stroke: #A80036; stroke-width: 1.5;" x1="474" x2="656" y1="40.5" y2="40.5"/></a><a href="/blob/master/doc/entities/PostgresTestDb.md#username-string" target="_top" xlink:actuate="onRequest" xlink:show="new" xlink:title="/blob/master/doc/entities/PostgresTestDb.md#username-string" xlink:type="simple"><text fill="#0000FF" font-family="sans-serif" font-size="11" lengthAdjust="spacingAndGlyphs" text-decoration="underline" textLength="53" x="479" y="55.1348">username</text></a><text fill="#000000" font-family="sans-serif" font-size="11" lengthAdjust="spacingAndGlyphs" textLength="3" x="532" y="55.1348">:</text><text fill="#808080" font-family="sans-serif" font-size="11" lengthAdjust="spacingAndGlyphs" textLength="32" x="538" y="55.1348">String</text><a href="/blob/master/doc/entities/PostgresTestDb.md#password-string" target="_top" xlink:actuate="onRequest" xlink:show="new" xlink:title="/blob/master/doc/entities/PostgresTestDb.md#password-string" xlink:type="simple"><text fill="#0000FF" font-family="sans-serif" font-size="11" lengthAdjust="spacingAndGlyphs" text-decoration="underline" textLength="52" x="479" y="68.0898">password</text></a><text fill="#000000" font-family="sans-serif" font-size="11" lengthAdjust="spacingAndGlyphs" textLength="3" x="531" y="68.0898">:</text><text fill="#808080" font-family="sans-serif" font-size="11" lengthAdjust="spacingAndGlyphs" textLength="32" x="537" y="68.0898">String</text><a href="/blob/master/doc/entities/PostgresTestDb.md#container_image-string" target="_top" xlink:actuate="onRequest" xlink:show="new" xlink:title="/blob/master/doc/entities/PostgresTestDb.md#container_image-string" xlink:type="simple"><text fill="#0000FF" font-family="sans-serif" font-size="11" lengthAdjust="spacingAndGlyphs" text-decoration="underline" textLength="89" x="479" y="81.0449">container_image</text></a><text fill="#000000" font-family="sans-serif" font-size="11" lengthAdjust="spacingAndGlyphs" textLength="3" x="568" y="81.0449">:</text><text fill="#808080" font-family="sans-serif" font-size="11" lengthAdjust="spacingAndGlyphs" textLength="32" x="574" y="81.0449">String</text><a href="/blob/master/doc/entities/PostgresTestDb.md#database_name-string" target="_top" xlink:actuate="onRequest" xlink:show="new" xlink:title="/blob/master/doc/entities/PostgresTestDb.md#database_name-string" xlink:type="simple"><text fill="#0000FF" font-family="sans-serif" font-size="11" lengthAdjust="spacingAndGlyphs" text-decoration="underline" textLength="83" x="479" y="94">database_name</text></a><text fill="#000000" font-family="sans-serif" font-size="11" lengthAdjust="spacingAndGlyphs" textLength="3" x="562" y="94">:</text><text fill="#808080" font-family="sans-serif" font-size="11" lengthAdjust="spacingAndGlyphs" textLength="32" x="568" y="94">String</text><a href="/blob/master/doc/entities/PostgresTestDb.md#port-int" target="_top" xlink:actuate="onRequest" xlink:show="new" xlink:title="/blob/master/doc/entities/PostgresTestDb.md#port-int" xlink:type="simple"><text fill="#0000FF" font-family="sans-serif" font-size="11" lengthAdjust="spacingAndGlyphs" text-decoration="underline" textLength="23" x="479" y="106.9551">port</text></a><text fill="#000000" font-family="sans-serif" font-size="11" lengthAdjust="spacingAndGlyphs" textLength="3" x="502" y="106.9551">:</text><text fill="#808080" font-family="sans-serif" font-size="11" lengthAdjust="spacingAndGlyphs" textLength="14" x="508" y="106.9551">Int</text><line style="stroke: #A80036; stroke-width: 1.5;" x1="474" x2="656" y1="113.2754" y2="113.2754"/><a href="/blob/master/doc/entities/PostgresTestDb.md#jdbc_connection_string-string" target="_top" xlink:actuate="onRequest" xlink:show="new" xlink:title="/blob/master/doc/entities/PostgresTestDb.md#jdbc_connection_string-string" xlink:type="simple"><text fill="#0000FF" font-family="sans-serif" font-size="11" lengthAdjust="spacingAndGlyphs" text-decoration="underline" textLength="117" x="479" y="127.9102">jdbcConnectionString</text></a><text fill="#000000" font-family="sans-serif" font-size="11" lengthAdjust="spacingAndGlyphs" textLength="11" x="596" y="127.9102">():</text><text fill="#808080" font-family="sans-serif" font-size="11" lengthAdjust="spacingAndGlyphs" textLength="32" x="610" y="127.9102">String</text><a href="/blob/master/doc/entities/PostgresTestDb.md#r2dbc_connection_string-string" target="_top" xlink:actuate="onRequest" xlink:show="new" xlink:title="/blob/master/doc/entities/PostgresTestDb.md#r2dbc_connection_string-string" xlink:type="simple"><text fill="#0000FF" font-family="sans-serif" font-size="11" lengthAdjust="spacingAndGlyphs" text-decoration="underline" textLength="126" x="479" y="140.8652">r2dbcConnectionString</text></a><text fill="#000000" font-family="sans-serif" font-size="11" lengthAdjust="spacingAndGlyphs" textLength="11" x="605" y="140.8652">():</text><text fill="#808080" font-family="sans-serif" font-size="11" lengthAdjust="spacingAndGlyphs" textLength="32" x="619" y="140.8652">String</text><!--class Springboot2ApiService--><a href="/blob/master/doc/entities/Springboot2ApiService.md" target="_top" xlink:actuate="onRequest" xlink:show="new" xlink:title="/blob/master/doc/entities/Springboot2ApiService.md" xlink:type="simple"><rect fill="#FEFECE" filter="url(#f1ko43vppgwwxh)" height="190.5059" id="Springboot2ApiService" style="stroke: #A80036; stroke-width: 1.5;" width="255" x="6.5" y="208.5"/><ellipse cx="65.25" cy="224.5" fill="#ADD1B2" rx="11" ry="11" style="stroke: #A80036; stroke-width: 1.0;"/><path d="M67.7231,230.6431 Q67.1421,230.9419 66.5029,231.0913 Q65.8638,231.2407 65.1582,231.2407 Q62.6514,231.2407 61.3315,229.5889 Q60.0117,227.937 60.0117,224.8159 Q60.0117,221.6865 61.3315,220.0347 Q62.6514,218.3828 65.1582,218.3828 Q65.8638,218.3828 66.5112,218.5322 Q67.1587,218.6816 67.7231,218.9805 L67.7231,221.7031 Q67.0923,221.1221 66.4988,220.8523 Q65.9053,220.5825 65.2744,220.5825 Q63.9297,220.5825 63.2449,221.6492 Q62.5601,222.7158 62.5601,224.8159 Q62.5601,226.9077 63.2449,227.9744 Q63.9297,229.041 65.2744,229.041 Q65.9053,229.041 66.4988,228.7712 Q67.0923,228.5015 67.7231,227.9204 Z "/><text fill="#000000" font-family="sans-serif" font-size="12" lengthAdjust="spacingAndGlyphs" textLength="129" x="85.75" y="229.0352">Springboot2ApiService</text><line style="stroke: #A80036; stroke-width: 1.5;" x1="7.5" x2="260.5" y1="240.5" y2="240.5"/><path d="M17.1667,247.3717 L16.25,250.1217 L13.5,250.1217 L15.7917,251.9551 L14.875,254.7051 L17.1667,252.8717 L19.4583,254.7051 L18.5417,251.9551 L20.8333,250.1217 L18.0833,250.1217 L17.1667,247.3717 " fill="#008000" style="stroke: ; stroke-width: 0.0; stroke-dasharray: ;"/></a><a href="/blob/master/doc/entities/Springboot2ApiService.md#function_model_name-string" target="_top" xlink:actuate="onRequest" xlink:show="new" xlink:title="/blob/master/doc/entities/Springboot2ApiService.md#function_model_name-string" xlink:type="simple"><text fill="#0000FF" font-family="sans-serif" font-size="11" lengthAdjust="spacingAndGlyphs" text-decoration="underline" textLength="119" x="21.8333" y="255.1348">function_model_name</text></a><text fill="#000000" font-family="sans-serif" font-size="11" lengthAdjust="spacingAndGlyphs" textLength="3" x="140.8333" y="255.1348">:</text><text fill="#808080" font-family="sans-serif" font-size="11" lengthAdjust="spacingAndGlyphs" textLength="32" x="146.8333" y="255.1348">String</text><a href="/blob/master/doc/entities/Springboot2ApiService.md#port-int" target="_top" xlink:actuate="onRequest" xlink:show="new" xlink:title="/blob/master/doc/entities/Springboot2ApiService.md#port-int" xlink:type="simple"><text fill="#0000FF" font-family="sans-serif" font-size="11" lengthAdjust="spacingAndGlyphs" text-decoration="underline" textLength="23" x="12.5" y="268.0898">port</text></a><text fill="#000000" font-family="sans-serif" font-size="11" lengthAdjust="spacingAndGlyphs" textLength="3" x="35.5" y="268.0898">:</text><text fill="#808080" font-family="sans-serif" font-size="11" lengthAdjust="spacingAndGlyphs" textLength="14" x="41.5" y="268.0898">Int</text><a href="/blob/master/doc/entities/Springboot2ApiService.md#container_base_image-string" target="_top" xlink:actuate="onRequest" xlink:show="new" xlink:title="/blob/master/doc/entities/Springboot2ApiService.md#container_base_image-string" xlink:type="simple"><text fill="#0000FF" font-family="sans-serif" font-size="11" lengthAdjust="spacingAndGlyphs" text-decoration="underline" textLength="120" x="12.5" y="281.0449">container_base_image</text></a><text fill="#000000" font-family="sans-serif" font-size="11" lengthAdjust="spacingAndGlyphs" textLength="3" x="132.5" y="281.0449">:</text><text fill="#808080" font-family="sans-serif" font-size="11" lengthAdjust="spacingAndGlyphs" textLength="32" x="138.5" y="281.0449">String</text><a href="/blob/master/doc/entities/Springboot2ApiService.md#gradle_version-string" target="_top" xlink:actuate="onRequest" xlink:show="new" xlink:title="/blob/master/doc/entities/Springboot2ApiService.md#gradle_version-string" xlink:type="simple"><text fill="#0000FF" font-family="sans-serif" font-size="11" lengthAdjust="spacingAndGlyphs" text-decoration="underline" textLength="80" x="12.5" y="294">gradle_version</text></a><text fill="#000000" font-family="sans-serif" font-size="11" lengthAdjust="spacingAndGlyphs" textLength="3" x="92.5" y="294">:</text><text fill="#808080" font-family="sans-serif" font-size="11" lengthAdjust="spacingAndGlyphs" textLength="32" x="98.5" y="294">String</text><a href="/blob/master/doc/entities/Springboot2ApiService.md#jdk_major_version-string" target="_top" xlink:actuate="onRequest" xlink:show="new" xlink:title="/blob/master/doc/entities/Springboot2ApiService.md#jdk_major_version-string" xlink:type="simple"><text fill="#0000FF" font-family="sans-serif" font-size="11" lengthAdjust="spacingAndGlyphs" text-decoration="underline" textLength="99" x="12.5" y="306.9551">jdk_major_version</text></a><text fill="#000000" font-family="sans-serif" font-size="11" lengthAdjust="spacingAndGlyphs" textLength="3" x="111.5" y="306.9551">:</text><text fill="#808080" font-family="sans-serif" font-size="11" lengthAdjust="spacingAndGlyphs" textLength="32" x="117.5" y="306.9551">String</text><a href="/blob/master/doc/entities/Springboot2ApiService.md#kotlin_version-string" target="_top" xlink:actuate="onRequest" xlink:show="new" xlink:title="/blob/master/doc/entities/Springboot2ApiService.md#kotlin_version-string" xlink:type="simple"><text fill="#0000FF" font-family="sans-serif" font-size="11" lengthAdjust="spacingAndGlyphs" text-decoration="underline" textLength="76" x="12.5" y="319.9102">kotlin_version</text></a><text fill="#000000" font-family="sans-serif" font-size="11" lengthAdjust="spacingAndGlyphs" textLength="3" x="88.5" y="319.9102">:</text><text fill="#808080" font-family="sans-serif" font-size="11" lengthAdjust="spacingAndGlyphs" textLength="32" x="94.5" y="319.9102">String</text><a href="/blob/master/doc/entities/Springboot2ApiService.md#kotlin_coroutine_version-string" target="_top" xlink:actuate="onRequest" xlink:show="new" xlink:title="/blob/master/doc/entities/Springboot2ApiService.md#kotlin_coroutine_version-string" xlink:type="simple"><text fill="#0000FF" font-family="sans-serif" font-size="11" lengthAdjust="spacingAndGlyphs" text-decoration="underline" textLength="134" x="12.5" y="332.8652">kotlin_coroutine_version</text></a><text fill="#000000" font-family="sans-serif" font-size="11" lengthAdjust="spacingAndGlyphs" textLength="3" x="146.5" y="332.8652">:</text><text fill="#808080" font-family="sans-serif" font-size="11" lengthAdjust="spacingAndGlyphs" textLength="32" x="152.5" y="332.8652">String</text><a href="/blob/master/doc/entities/Springboot2ApiService.md#r2dbc_postgres_driver_version-string" target="_top" xlink:actuate="onRequest" xlink:show="new" xlink:title="/blob/master/doc/entities/Springboot2ApiService.md#r2dbc_postgres_driver_version-string" xlink:type="simple"><text fill="#0000FF" font-family="sans-serif" font-size="11" lengthAdjust="spacingAndGlyphs" text-decoration="underline" textLength="170" x="12.5" y="345.8203">r2dbc_postgres_driver_version</text></a><text fill="#000000" font-family="sans-serif" font-size="11" lengthAdjust="spacingAndGlyphs" textLength="3" x="182.5" y="345.8203">:</text><text fill="#808080" font-family="sans-serif" font-size="11" lengthAdjust="spacingAndGlyphs" textLength="32" x="188.5" y="345.8203">String</text><a href="/blob/master/doc/entities/Springboot2ApiService.md#springboot_version-string" target="_top" xlink:actuate="onRequest" xlink:show="new" xlink:title="/blob/master/doc/entities/Springboot2ApiService.md#springboot_version-string" xlink:type="simple"><text fill="#0000FF" font-family="sans-serif" font-size="11" lengthAdjust="spacingAndGlyphs" text-decoration="underline" textLength="106" x="12.5" y="358.7754">springboot_version</text></a><text fill="#000000" font-family="sans-serif" font-size="11" lengthAdjust="spacingAndGlyphs" textLength="3" x="118.5" y="358.7754">:</text><text fill="#808080" font-family="sans-serif" font-size="11" lengthAdjust="spacingAndGlyphs" textLength="32" x="124.5" y="358.7754">String</text><a href="/blob/master/doc/entities/Springboot2ApiService.md#springboot_graphql_webflux_version-string" target="_top" xlink:actuate="onRequest" xlink:show="new" xlink:title="/blob/master/doc/entities/Springboot2ApiService.md#springboot_graphql_webflux_version-string" xlink:type="simple"><text fill="#0000FF" font-family="sans-serif" font-size="11" lengthAdjust="spacingAndGlyphs" text-decoration="underline" textLength="202" x="12.5" y="371.7305">springboot_graphql_webflux_version</text></a><text fill="#000000" font-family="sans-serif" font-size="11" lengthAdjust="spacingAndGlyphs" textLength="3" x="214.5" y="371.7305">:</text><text fill="#808080" font-family="sans-serif" font-size="11" lengthAdjust="spacingAndGlyphs" textLength="32" x="220.5" y="371.7305">String</text><a href="/blob/master/doc/entities/Springboot2ApiService.md#spring_dependency_manager_version-string" target="_top" xlink:actuate="onRequest" xlink:show="new" xlink:title="/blob/master/doc/entities/Springboot2ApiService.md#spring_dependency_manager_version-string" xlink:type="simple"><text fill="#0000FF" font-family="sans-serif" font-size="11" lengthAdjust="spacingAndGlyphs" text-decoration="underline" textLength="205" x="12.5" y="384.6855">spring_dependency_manager_version</text></a><text fill="#000000" font-family="sans-serif" font-size="11" lengthAdjust="spacingAndGlyphs" textLength="3" x="217.5" y="384.6855">:</text><text fill="#808080" font-family="sans-serif" font-size="11" lengthAdjust="spacingAndGlyphs" textLength="32" x="223.5" y="384.6855">String</text><line style="stroke: #A80036; stroke-width: 1.5;" x1="7.5" x2="260.5" y1="391.0059" y2="391.0059"/><!--class DatasourceMapping--><a href="/blob/master/doc/entities/DatasourceMapping.md" target="_top" xlink:actuate="onRequest" xlink:show="new" xlink:title="/blob/master/doc/entities/DatasourceMapping.md" xlink:type="simple"><rect fill="#FEFECE" filter="url(#f1ko43vppgwwxh)" height="99.8203" id="DatasourceMapping" style="stroke: #A80036; stroke-width: 1.5;" width="155.3333" x="487.5" y="254"/><ellipse cx="506.25" cy="270" fill="#ADD1B2" rx="11" ry="11" style="stroke: #A80036; stroke-width: 1.0;"/><path d="M508.7231,276.1431 Q508.1421,276.4419 507.5029,276.5913 Q506.8638,276.7407 506.1582,276.7407 Q503.6514,276.7407 502.3315,275.0889 Q501.0117,273.437 501.0117,270.3159 Q501.0117,267.1865 502.3315,265.5347 Q503.6514,263.8828 506.1582,263.8828 Q506.8638,263.8828 507.5112,264.0322 Q508.1587,264.1816 508.7231,264.4805 L508.7231,267.2031 Q508.0923,266.6221 507.4988,266.3523 Q506.9053,266.0825 506.2744,266.0825 Q504.9297,266.0825 504.2449,267.1492 Q503.5601,268.2158 503.5601,270.3159 Q503.5601,272.4077 504.2449,273.4744 Q504.9297,274.541 506.2744,274.541 Q506.9053,274.541 507.4988,274.2712 Q508.0923,274.0015 508.7231,273.4204 Z "/><text fill="#000000" font-family="sans-serif" font-size="12" lengthAdjust="spacingAndGlyphs" textLength="115" x="521.0833" y="274.5352">DatasourceMapping</text><line style="stroke: #A80036; stroke-width: 1.5;" x1="488.5" x2="641.8333" y1="286" y2="286"/></a><a href="/blob/master/doc/entities/DatasourceMapping.md#name-string" target="_top" xlink:actuate="onRequest" xlink:show="new" xlink:title="/blob/master/doc/entities/DatasourceMapping.md#name-string" xlink:type="simple"><text fill="#0000FF" font-family="sans-serif" font-size="11" lengthAdjust="spacingAndGlyphs" text-decoration="underline" textLength="29" x="493.5" y="300.6348">name</text></a><text fill="#000000" font-family="sans-serif" font-size="11" lengthAdjust="spacingAndGlyphs" textLength="3" x="522.5" y="300.6348">:</text><text fill="#808080" font-family="sans-serif" font-size="11" lengthAdjust="spacingAndGlyphs" textLength="32" x="528.5" y="300.6348">String</text><path d="M498.1667,305.8268 L497.25,308.5768 L494.5,308.5768 L496.7917,310.4102 L495.875,313.1602 L498.1667,311.3268 L500.4583,313.1602 L499.5417,310.4102 L501.8333,308.5768 L499.0833,308.5768 L498.1667,305.8268 " fill="#008000" style="stroke: ; stroke-width: 0.0; stroke-dasharray: ;"/><a href="/blob/master/doc/entities/DatasourceMapping.md#component_name-string" target="_top" xlink:actuate="onRequest" xlink:show="new" xlink:title="/blob/master/doc/entities/DatasourceMapping.md#component_name-string" xlink:type="simple"><text fill="#0000FF" font-family="sans-serif" font-size="11" lengthAdjust="spacingAndGlyphs" text-decoration="underline" textLength="96" x="502.8333" y="313.5898">component_name</text></a><text fill="#000000" font-family="sans-serif" font-size="11" lengthAdjust="spacingAndGlyphs" textLength="3" x="598.8333" y="313.5898">:</text><text fill="#808080" font-family="sans-serif" font-size="11" lengthAdjust="spacingAndGlyphs" textLength="32" x="604.8333" y="313.5898">String</text><line style="stroke: #A80036; stroke-width: 1.5;" x1="488.5" x2="641.8333" y1="319.9102" y2="319.9102"/><a href="/blob/master/doc/entities/DatasourceMapping.md#is_default-boolean" target="_top" xlink:actuate="onRequest" xlink:show="new" xlink:title="/blob/master/doc/entities/DatasourceMapping.md#is_default-boolean" xlink:type="simple"><text fill="#0000FF" font-family="sans-serif" font-size="11" lengthAdjust="spacingAndGlyphs" text-decoration="underline" textLength="47" x="493.5" y="334.5449">isDefault</text></a><text fill="#000000" font-family="sans-serif" font-size="11" lengthAdjust="spacingAndGlyphs" textLength="11" x="540.5" y="334.5449">():</text><text fill="#808080" font-family="sans-serif" font-size="11" lengthAdjust="spacingAndGlyphs" textLength="42" x="554.5" y="334.5449">Boolean</text><a href="/blob/master/doc/entities/DatasourceMapping.md#datasource-datasource" target="_top" xlink:actuate="onRequest" xlink:show="new" xlink:title="/blob/master/doc/entities/DatasourceMapping.md#datasource-datasource" xlink:type="simple"><text fill="#0000FF" font-family="sans-serif" font-size="11" lengthAdjust="spacingAndGlyphs" text-decoration="underline" textLength="60" x="493.5" y="347.5">datasource</text></a><text fill="#000000" font-family="sans-serif" font-size="11" lengthAdjust="spacingAndGlyphs" textLength="11" x="553.5" y="347.5">():</text><text fill="#808080" font-family="sans-serif" font-size="11" lengthAdjust="spacingAndGlyphs" textLength="61" x="567.5" y="347.5">Datasource</text><!--class Environment--><a href="/blob/master/doc/entities/Environment.md" target="_top" xlink:actuate="onRequest" xlink:show="new" xlink:title="/blob/master/doc/entities/Environment.md" xlink:type="simple"><rect fill="#FEFECE" filter="url(#f1ko43vppgwwxh)" height="99.8203" id="Environment" style="stroke: #A80036; stroke-width: 1.5;" width="256" x="6" y="469"/><ellipse cx="94.25" cy="485" fill="#ADD1B2" rx="11" ry="11" style="stroke: #A80036; stroke-width: 1.0;"/><path d="M96.7231,491.1431 Q96.1421,491.4419 95.5029,491.5913 Q94.8638,491.7407 94.1582,491.7407 Q91.6514,491.7407 90.3315,490.0889 Q89.0117,488.437 89.0117,485.3159 Q89.0117,482.1865 90.3315,480.5347 Q91.6514,478.8828 94.1582,478.8828 Q94.8638,478.8828 95.5112,479.0322 Q96.1587,479.1816 96.7231,479.4805 L96.7231,482.2031 Q96.0923,481.6221 95.4988,481.3523 Q94.9053,481.0825 94.2744,481.0825 Q92.9297,481.0825 92.2449,482.1492 Q91.5601,483.2158 91.5601,485.3159 Q91.5601,487.4077 92.2449,488.4744 Q92.9297,489.541 94.2744,489.541 Q94.9053,489.541 95.4988,489.2712 Q96.0923,489.0015 96.7231,488.4204 Z "/><text fill="#000000" font-family="sans-serif" font-size="12" lengthAdjust="spacingAndGlyphs" textLength="71" x="114.75" y="489.5352">Environment</text><line style="stroke: #A80036; stroke-width: 1.5;" x1="7" x2="261" y1="501" y2="501"/><path d="M18.0417,507.8717 C16.7767,507.8717 15.75,508.8984 15.75,510.1634 C15.75,510.3101 15.7802,510.4357 15.8078,510.5649 L13,513.3727 L13,515.206 L15.75,515.206 L15.75,513.3727 L17.5833,513.3727 L17.5833,512.456 L17.6411,512.3982 C17.7694,512.4257 17.895,512.456 18.0426,512.456 C19.3076,512.456 20.3342,511.4293 20.3342,510.1643 C20.3342,508.8993 19.3076,507.8727 18.0426,507.8727 M18.5009,508.7893 C19.0051,508.7893 19.4176,509.2018 19.4176,509.706 C19.4176,510.2102 19.0051,510.6227 18.5009,510.6227 C17.9968,510.6227 17.5843,510.2102 17.5843,509.706 C17.5843,509.2018 17.9968,508.7893 18.5009,508.7893 " fill="#FF0000" style="stroke: ; stroke-width: 0.0; stroke-dasharray: ;"/><path d="M26,507.8717 L25.0833,510.6217 L22.3333,510.6217 L24.625,512.4551 L23.7083,515.2051 L26,513.3717 L28.2917,515.2051 L27.375,512.4551 L29.6667,510.6217 L26.9167,510.6217 L26,507.8717 " fill="#008000" style="stroke: ; stroke-width: 0.0; stroke-dasharray: ;"/></a><a href="/blob/master/doc/entities/Environment.md#name-string" target="_top" xlink:actuate="onRequest" xlink:show="new" xlink:title="/blob/master/doc/entities/Environment.md#name-string" xlink:type="simple"><text fill="#0000FF" font-family="sans-serif" font-size="11" lengthAdjust="spacingAndGlyphs" text-decoration="underline" textLength="29" x="30.6667" y="515.6348">name</text></a><text fill="#000000" font-family="sans-serif" font-size="11" lengthAdjust="spacingAndGlyphs" textLength="3" x="59.6667" y="515.6348">:</text><text fill="#808080" font-family="sans-serif" font-size="11" lengthAdjust="spacingAndGlyphs" textLength="32" x="65.6667" y="515.6348">String</text><path d="M16.6667,520.8268 L15.75,523.5768 L13,523.5768 L15.2917,525.4102 L14.375,528.1602 L16.6667,526.3268 L18.9583,528.1602 L18.0417,525.4102 L20.3333,523.5768 L17.5833,523.5768 L16.6667,520.8268 " fill="#008000" style="stroke: ; stroke-width: 0.0; stroke-dasharray: ;"/><a href="/blob/master/doc/entities/Environment.md#tier-string" target="_top" xlink:actuate="onRequest" xlink:show="new" xlink:title="/blob/master/doc/entities/Environment.md#tier-string" xlink:type="simple"><text fill="#0000FF" font-family="sans-serif" font-size="11" lengthAdjust="spacingAndGlyphs" text-decoration="underline" textLength="18" x="21.3333" y="528.5898">tier</text></a><text fill="#000000" font-family="sans-serif" font-size="11" lengthAdjust="spacingAndGlyphs" textLength="3" x="39.3333" y="528.5898">:</text><text fill="#808080" font-family="sans-serif" font-size="11" lengthAdjust="spacingAndGlyphs" textLength="32" x="45.3333" y="528.5898">String</text><a href="/blob/master/doc/entities/Environment.md#uses_locally_built_container_images-boolean" target="_top" xlink:actuate="onRequest" xlink:show="new" xlink:title="/blob/master/doc/entities/Environment.md#uses_locally_built_container_images-boolean" xlink:type="simple"><text fill="#0000FF" font-family="sans-serif" font-size="11" lengthAdjust="spacingAndGlyphs" text-decoration="underline" textLength="196" x="12" y="541.5449">uses_locally_built_container_images</text></a><text fill="#000000" font-family="sans-serif" font-size="11" lengthAdjust="spacingAndGlyphs" textLength="3" x="208" y="541.5449">:</text><text fill="#808080" font-family="sans-serif" font-size="11" lengthAdjust="spacingAndGlyphs" textLength="42" x="214" y="541.5449">Boolean</text><line style="stroke: #A80036; stroke-width: 1.5;" x1="7" x2="261" y1="547.8652" y2="547.8652"/><a href="/blob/master/doc/entities/Environment.md#components-listComponent" target="_top" xlink:actuate="onRequest" xlink:show="new" xlink:title="/blob/master/doc/entities/Environment.md#components-listComponent" xlink:type="simple"><text fill="#0000FF" font-family="sans-serif" font-size="11" lengthAdjust="spacingAndGlyphs" text-decoration="underline" textLength="67" x="12" y="562.5">components</text></a><text fill="#000000" font-family="sans-serif" font-size="11" lengthAdjust="spacingAndGlyphs" textLength="11" x="79" y="562.5">():</text><text fill="#808080" font-family="sans-serif" font-size="11" lengthAdjust="spacingAndGlyphs" textLength="100" x="93" y="562.5">List&lt;Component&gt;</text><!--class ComponentEntry--><a href="/blob/master/doc/entities/ComponentEntry.md" target="_top" xlink:actuate="onRequest" xlink:show="new" xlink:title="/blob/master/doc/entities/ComponentEntry.md" xlink:type="simple"><rect fill="#FEFECE" filter="url(#f1ko43vppgwwxh)" height="60.9551" id="ComponentEntry" style="stroke: #A80036; stroke-width: 1.5;" width="127" x="501.5" y="488.5"/><ellipse cx="516.5" cy="504.5" fill="#ADD1B2" rx="11" ry="11" style="stroke: #A80036; stroke-width: 1.0;"/><path d="M518.9731,510.6431 Q518.3921,510.9419 517.7529,511.0913 Q517.1138,511.2407 516.4082,511.2407 Q513.9014,511.2407 512.5815,509.5889 Q511.2617,507.937 511.2617,504.8159 Q511.2617,501.6865 512.5815,500.0347 Q513.9014,498.3828 516.4082,498.3828 Q517.1138,498.3828 517.7612,498.5322 Q518.4087,498.6816 518.9731,498.9805 L518.9731,501.7031 Q518.3423,501.1221 517.7488,500.8523 Q517.1553,500.5825 516.5244,500.5825 Q515.1797,500.5825 514.4949,501.6492 Q513.8101,502.7158 513.8101,504.8159 Q513.8101,506.9077 514.4949,507.9744 Q515.1797,509.041 516.5244,509.041 Q517.1553,509.041 517.7488,508.7712 Q518.3423,508.5015 518.9731,507.9204 Z "/><text fill="#000000" font-family="sans-serif" font-size="12" lengthAdjust="spacingAndGlyphs" textLength="95" x="530.5" y="509.0352">ComponentEntry</text><line style="stroke: #A80036; stroke-width: 1.5;" x1="502.5" x2="627.5" y1="520.5" y2="520.5"/><path d="M513.5417,527.3717 C512.2767,527.3717 511.25,528.3984 511.25,529.6634 C511.25,529.8101 511.2803,529.9357 511.3078,530.0649 L508.5,532.8727 L508.5,534.706 L511.25,534.706 L511.25,532.8727 L513.0833,532.8727 L513.0833,531.956 L513.1411,531.8982 C513.2694,531.9257 513.395,531.956 513.5426,531.956 C514.8076,531.956 515.8343,530.9293 515.8343,529.6643 C515.8343,528.3993 514.8076,527.3727 513.5426,527.3727 M514.0009,528.2893 C514.5051,528.2893 514.9176,528.7018 514.9176,529.206 C514.9176,529.7102 514.5051,530.1227 514.0009,530.1227 C513.4968,530.1227 513.0843,529.7102 513.0843,529.206 C513.0843,528.7018 513.4968,528.2893 514.0009,528.2893 " fill="#FF0000" style="stroke: ; stroke-width: 0.0; stroke-dasharray: ;"/><path d="M521.5,527.3717 L520.5833,530.1217 L517.8333,530.1217 L520.125,531.9551 L519.2083,534.7051 L521.5,532.8717 L523.7917,534.7051 L522.875,531.9551 L525.1667,530.1217 L522.4167,530.1217 L521.5,527.3717 " fill="#008000" style="stroke: ; stroke-width: 0.0; stroke-dasharray: ;"/></a><a href="/blob/master/doc/entities/ComponentEntry.md#name-string" target="_top" xlink:actuate="onRequest" xlink:show="new" xlink:title="/blob/master/doc/entities/ComponentEntry.md#name-string" xlink:type="simple"><text fill="#0000FF" font-family="sans-serif" font-size="11" lengthAdjust="spacingAndGlyphs" text-decoration="underline" textLength="29" x="526.1667" y="535.1348">name</text></a><text fill="#000000" font-family="sans-serif" font-size="11" lengthAdjust="spacingAndGlyphs" textLength="3" x="555.1667" y="535.1348">:</text><text fill="#808080" font-family="sans-serif" font-size="11" lengthAdjust="spacingAndGlyphs" textLength="32" x="561.1667" y="535.1348">String</text><line style="stroke: #A80036; stroke-width: 1.5;" x1="502.5" x2="627.5" y1="541.4551" y2="541.4551"/><!--link PostgresTestDb to Component--><path d="M657.37,118.52 C696.22,135.74 742.02,156.06 783.43,174.42 " fill="none" id="PostgresTestDb-Component" style="stroke: #A80036; stroke-width: 1.0;"/><polygon fill="none" points="786.35,168.06,801.79,182.56,780.67,180.85,786.35,168.06" style="stroke: #A80036; stroke-width: 1.0;"/><!--link Springboot2ApiService to Component--><path d="M261.85,271.93 C322.07,258.18 395.31,243.55 462,236 C569.59,223.82 692.89,222.37 781.54,223.5 " fill="none" id="Springboot2ApiService-Component" style="stroke: #A80036; stroke-width: 1.0;"/><polygon fill="none" points="781.72,216.5,801.61,223.8,781.5,230.5,781.72,216.5" style="stroke: #A80036; stroke-width: 1.0;"/><!--link Springboot2ApiService to Service--><path d="M261.68,340.91 C353.36,367.63 470.91,401.88 528.7,418.72 " fill="none" id="Springboot2ApiService-Service" style="stroke: #A80036; stroke-width: 1.0;"/><text fill="#000000" font-family="sans-serif" font-size="13" lengthAdjust="spacingAndGlyphs" textLength="99" x="312.5" y="348.5684">function_model</text><text fill="#000000" font-family="sans-serif" font-size="13" lengthAdjust="spacingAndGlyphs" textLength="8" x="513.0178" y="430.788">1</text><!--link Springboot2ApiService to DatasourceMapping--><path d="M274.72,304 C345.38,304 428.41,304 487.35,304 " fill="none" id="Springboot2ApiService-DatasourceMapping" style="stroke: #A80036; stroke-width: 1.0;"/><polygon fill="#A80036" points="261.68,304,267.68,308,273.68,304,267.68,300,261.68,304" style="stroke: #A80036; stroke-width: 1.0;"/><text fill="#000000" font-family="sans-serif" font-size="13" lengthAdjust="spacingAndGlyphs" textLength="138" x="293" y="300.5684">datasource_mappings</text><text fill="#000000" font-family="sans-serif" font-size="13" lengthAdjust="spacingAndGlyphs" textLength="6" x="473.3946" y="317.3308">*</text><!--link DatasourceMapping to Component--><path d="M642.66,286.43 C689.83,275.62 750.79,261.65 801.75,249.97 " fill="none" id="DatasourceMapping-Component" style="stroke: #A80036; stroke-width: 1.0;"/><text fill="#000000" font-family="sans-serif" font-size="13" lengthAdjust="spacingAndGlyphs" textLength="71" x="700" y="255.5684">component</text><text fill="#000000" font-family="sans-serif" font-size="13" lengthAdjust="spacingAndGlyphs" textLength="8" x="786.0207" y="264.7957">1</text><!--link Environment to ComponentEntry--><path d="M275.35,519 C351.65,519 442.22,519 501.29,519 " fill="none" id="Environment-ComponentEntry" style="stroke: #A80036; stroke-width: 1.0;"/><polygon fill="#A80036" points="262.26,519,268.26,523,274.26,519,268.26,515,262.26,519" style="stroke: #A80036; stroke-width: 1.0;"/><text fill="#000000" font-family="sans-serif" font-size="13" lengthAdjust="spacingAndGlyphs" textLength="121" x="301.5" y="515.5684">component_entries</text><text fill="#000000" font-family="sans-serif" font-size="13" lengthAdjust="spacingAndGlyphs" textLength="6" x="487.5767" y="532.4561">*</text><!--link ComponentEntry to Component--><path d="M628.76,492.91 C642.55,486 656.7,477.94 669,469 C742.97,415.28 813.71,336.61 857.45,283.69 " fill="none" id="ComponentEntry-Component" style="stroke: #A80036; stroke-width: 1.0;"/><text fill="#000000" font-family="sans-serif" font-size="13" lengthAdjust="spacingAndGlyphs" textLength="71" x="700" y="381.5684">component</text><text fill="#000000" font-family="sans-serif" font-size="13" lengthAdjust="spacingAndGlyphs" textLength="8" x="843.7208" y="303.7113">1</text><!--
@startuml
left to right direction


class Component [[/blob/master/doc/entities/Component.md]] {
  <color:RED><&key></color><color:Green><&star></color>[[/blob/master/doc/entities/Component.md#name-string name]]: <color:GRAY>String</color>
  <color:RED><&flag></color><color:Green><&star></color>[[/blob/master/doc/entities/Component.md#type-string type]]: <color:GRAY>String</color>
  <color:Green><&star></color>[[/blob/master/doc/entities/Component.md#tags-listString tags]]: <color:GRAY>List<String></color>
  [[/blob/master/doc/entities/Component.md#instance_name-string instance_name]]: <color:GRAY>String</color>
  [[/blob/master/doc/entities/Component.md#current_environment-environment currentEnvironment]](): <color:GRAY>Environment</color>
}




class PostgresTestDb [[/blob/master/doc/entities/PostgresTestDb.md]] {
  [[/blob/master/doc/entities/PostgresTestDb.md#username-string username]]: <color:GRAY>String</color>
  [[/blob/master/doc/entities/PostgresTestDb.md#password-string password]]: <color:GRAY>String</color>
  [[/blob/master/doc/entities/PostgresTestDb.md#container_image-string container_image]]: <color:GRAY>String</color>
  [[/blob/master/doc/entities/PostgresTestDb.md#database_name-string database_name]]: <color:GRAY>String</color>
  [[/blob/master/doc/entities/PostgresTestDb.md#port-int port]]: <color:GRAY>Int</color>
  [[/blob/master/doc/entities/PostgresTestDb.md#jdbc_connection_string-string jdbcConnectionString]](): <color:GRAY>String</color>
  [[/blob/master/doc/entities/PostgresTestDb.md#r2dbc_connection_string-string r2dbcConnectionString]](): <color:GRAY>String</color>
}

PostgresTestDb - -|> Component





class Springboot2ApiService [[/blob/master/doc/entities/Springboot2ApiService.md]] {
  <color:Green><&star></color>[[/blob/master/doc/entities/Springboot2ApiService.md#function_model_name-string function_model_name]]: <color:GRAY>String</color>
  [[/blob/master/doc/entities/Springboot2ApiService.md#port-int port]]: <color:GRAY>Int</color>
  [[/blob/master/doc/entities/Springboot2ApiService.md#container_base_image-string container_base_image]]: <color:GRAY>String</color>
  [[/blob/master/doc/entities/Springboot2ApiService.md#gradle_version-string gradle_version]]: <color:GRAY>String</color>
  [[/blob/master/doc/entities/Springboot2ApiService.md#jdk_major_version-string jdk_major_version]]: <color:GRAY>String</color>
  [[/blob/master/doc/entities/Springboot2ApiService.md#kotlin_version-string kotlin_version]]: <color:GRAY>String</color>
  [[/blob/master/doc/entities/Springboot2ApiService.md#kotlin_coroutine_version-string kotlin_coroutine_version]]: <color:GRAY>String</color>
  [[/blob/master/doc/entities/Springboot2ApiService.md#r2dbc_postgres_driver_version-string r2dbc_postgres_driver_version]]: <color:GRAY>String</color>
  [[/blob/master/doc/entities/Springboot2ApiService.md#springboot_version-string springboot_version]]: <color:GRAY>String</color>
  [[/blob/master/doc/entities/Springboot2ApiService.md#springboot_graphql_webflux_version-string springboot_graphql_webflux_version]]: <color:GRAY>String</color>
  [[/blob/master/doc/entities/Springboot2ApiService.md#spring_dependency_manager_version-string spring_dependency_manager_version]]: <color:GRAY>String</color>
}

Springboot2ApiService - -|> Component






package laplacian.arch.api.service {
  class Service {
  }
}


Springboot2ApiService - - "1" Service : function_model






Springboot2ApiService *- - "*" DatasourceMapping : datasource_mappings




class DatasourceMapping [[/blob/master/doc/entities/DatasourceMapping.md]] {
  [[/blob/master/doc/entities/DatasourceMapping.md#name-string name]]: <color:GRAY>String</color>
  [[/blob/master/doc/entities/DatasourceMapping.md#is_default-boolean isDefault]](): <color:GRAY>Boolean</color>
  <color:Green><&star></color>[[/blob/master/doc/entities/DatasourceMapping.md#component_name-string component_name]]: <color:GRAY>String</color>
  [[/blob/master/doc/entities/DatasourceMapping.md#datasource-datasource datasource]](): <color:GRAY>Datasource</color>
}






DatasourceMapping - - "1" Component : component




class Environment [[/blob/master/doc/entities/Environment.md]] {
  <color:RED><&key></color><color:Green><&star></color>[[/blob/master/doc/entities/Environment.md#name-string name]]: <color:GRAY>String</color>
  <color:Green><&star></color>[[/blob/master/doc/entities/Environment.md#tier-string tier]]: <color:GRAY>String</color>
  [[/blob/master/doc/entities/Environment.md#uses_locally_built_container_images-boolean uses_locally_built_container_images]]: <color:GRAY>Boolean</color>
  [[/blob/master/doc/entities/Environment.md#components-listComponent components]](): <color:GRAY>List<Component></color>
}






Environment *- - "*" ComponentEntry : component_entries




class ComponentEntry [[/blob/master/doc/entities/ComponentEntry.md]] {
  <color:RED><&key></color><color:Green><&star></color>[[/blob/master/doc/entities/ComponentEntry.md#name-string name]]: <color:GRAY>String</color>
}






ComponentEntry - - "1" Component : component



@enduml

PlantUML version 1.2019.05(Sun Apr 21 01:45:36 JST 2019)
(GPL source distribution)
Java Runtime: OpenJDK Runtime Environment
JVM: OpenJDK 64-Bit Server VM
Java Version: 11.0.7+10-LTS
Operating System: Mac OS X
OS Version: 10.15.6
Default Encoding: UTF-8
Language: en
Country: JP
--></g></svg>